<svg id="library-data-relationships" width="661.25" xmlns="http://www.w3.org/2000/svg" class="erDiagram" height="934.8656005859375" viewBox="0 0 661.25 934.8656005859375" role="img" aria-roledescription="er" aria-labelledby="library-diagram-title library-diagram-description"><title id="library-diagram-title">Library data relationships</title><desc id="library-diagram-description">COMBINED_MONTHLY_TOTALS appears above DIGITAL_TITLE_SAMPLE and PHYSICAL_TITLE_SAMPLE. Each monthly aggregate provides context for zero or more sampled title-month records through year, month, and usage class. All fields and both relationships from the source diagram are included.</desc><style>#library-data-relationships{font-family:Arial,Helvetica,sans-serif;font-size:16px;fill:#0f172a;}@keyframes edge-animation-frame{from{stroke-dashoffset:0;}}@keyframes dash{to{stroke-dashoffset:0;}}#library-data-relationships .edge-animation-slow{stroke-dasharray:9,5!important;stroke-dashoffset:900;animation:dash 50s linear infinite;stroke-linecap:round;}#library-data-relationships .edge-animation-fast{stroke-dasharray:9,5!important;stroke-dashoffset:900;animation:dash 20s linear infinite;stroke-linecap:round;}#library-data-relationships .error-icon{fill:#ffffff;}#library-data-relationships .error-text{fill:#000000;stroke:#000000;}#library-data-relationships .edge-thickness-normal{stroke-width:1px;}#library-data-relationships .edge-thickness-thick{stroke-width:3.5px;}#library-data-relationships .edge-pattern-solid{stroke-dasharray:0;}#library-data-relationships .edge-thickness-invisible{stroke-width:0;fill:none;}#library-data-relationships .edge-pattern-dashed{stroke-dasharray:3;}#library-data-relationships .edge-pattern-dotted{stroke-dasharray:2;}#library-data-relationships .marker{fill:#475569;stroke:#475569;}#library-data-relationships .marker.cross{stroke:#475569;}#library-data-relationships svg{font-family:Arial,Helvetica,sans-serif;font-size:16px;}#library-data-relationships p{margin:0;}#library-data-relationships .entityBox{fill:#f1f5f9;stroke:#64748b;}#library-data-relationships .relationshipLabelBox{fill:#ffffff;opacity:0.7;background-color:#ffffff;}#library-data-relationships .relationshipLabelBox rect{opacity:0.5;}#library-data-relationships .labelBkg{background-color:rgba(255, 255, 255, 0.5);}#library-data-relationships .edgeLabel .label{fill:#64748b;font-size:14px;}#library-data-relationships .label{font-family:Arial,Helvetica,sans-serif;color:#0f172a;}#library-data-relationships .edge-pattern-dashed{stroke-dasharray:8,8;}#library-data-relationships .node rect,#library-data-relationships .node circle,#library-data-relationships .node ellipse,#library-data-relationships .node polygon{fill:#f1f5f9;stroke:#64748b;stroke-width:1px;}#library-data-relationships .relationshipLine{stroke:#475569;stroke-width:1;fill:none;}#library-data-relationships .marker{fill:none!important;stroke:#475569!important;stroke-width:1;}#library-data-relationships :root{--mermaid-font-family:Arial,Helvetica,sans-serif;}#library-data-relationships .edgeLabel .label rect.background{fill:#ffffff;stroke:none;}#library-data-relationships .edgeLabel .label text{fill:#0f172a;}</style><g><defs><marker id="library-data-relationships_er-onlyOneStart" class="marker onlyOne er" refX="0" refY="9" markerWidth="18" markerHeight="18" orient="auto"><path d="M9,0 L9,18 M15,0 L15,18"></path></marker></defs><defs><marker id="library-data-relationships_er-onlyOneEnd" class="marker onlyOne er" refX="18" refY="9" markerWidth="18" markerHeight="18" orient="auto"><path d="M3,0 L3,18 M9,0 L9,18"></path></marker></defs><defs><marker id="library-data-relationships_er-zeroOrOneStart" class="marker zeroOrOne er" refX="0" refY="9" markerWidth="30" markerHeight="18" orient="auto"><circle fill="white" cx="21" cy="9" r="6"></circle><path d="M9,0 L9,18"></path></marker></defs><defs><marker id="library-data-relationships_er-zeroOrOneEnd" class="marker zeroOrOne er" refX="30" refY="9" markerWidth="30" markerHeight="18" orient="auto"><circle fill="white" cx="9" cy="9" r="6"></circle><path d="M21,0 L21,18"></path></marker></defs><defs><marker id="library-data-relationships_er-oneOrMoreStart" class="marker oneOrMore er" refX="18" refY="18" markerWidth="45" markerHeight="36" orient="auto"><path d="M0,18 Q 18,0 36,18 Q 18,36 0,18 M42,9 L42,27"></path></marker></defs><defs><marker id="library-data-relationships_er-oneOrMoreEnd" class="marker oneOrMore er" refX="27" refY="18" markerWidth="45" markerHeight="36" orient="auto"><path d="M3,9 L3,27 M9,18 Q27,0 45,18 Q27,36 9,18"></path></marker></defs><defs><marker id="library-data-relationships_er-zeroOrMoreStart" class="marker zeroOrMore er" refX="18" refY="18" markerWidth="57" markerHeight="36" orient="auto"><circle fill="white" cx="48" cy="18" r="6"></circle><path d="M0,18 Q18,0 36,18 Q18,36 0,18"></path></marker></defs><defs><marker id="library-data-relationships_er-zeroOrMoreEnd" class="marker zeroOrMore er" refX="39" refY="18" markerWidth="57" markerHeight="36" orient="auto"><circle fill="white" cx="9" cy="18" r="6"></circle><path d="M21,18 Q39,0 57,18 Q39,36 21,18"></path></marker></defs><g class="root"><g class="clusters"></g><g class="edgePaths"><path d="M179.909,320.68L171.035,330.594C162.161,340.508,144.412,360.335,135.538,380.163C126.664,399.991,126.664,419.819,126.664,429.733L126.664,439.647" id="id_entity-COMBINED_MONTHLY_TOTALS-0_entity-DIGITAL_TITLE_SAMPLE-1_0" class="edge-thickness-normal edge-pattern-solid relationshipLine" style="undefined;;;undefined" data-edge="true" data-et="edge" data-id="id_entity-COMBINED_MONTHLY_TOTALS-0_entity-DIGITAL_TITLE_SAMPLE-1_0" data-points="W3sieCI6MTc5LjkwODkxMjk4NDgzMzczLCJ5IjozMjAuNjc5Njg3NX0seyJ4IjoxMjYuNjY0MDYyNSwieSI6MzgwLjE2MzI4MDQ4NzA2MDU1fSx7IngiOjEyNi42NjQwNjI1LCJ5Ijo0MzkuNjQ2ODczNDc0MTIxMX1d" marker-start="url(#library-data-relationships_er-onlyOneStart)" marker-end="url(#library-data-relationships_er-zeroOrMoreEnd)"></path><path d="M459.794,320.68L468.668,330.594C477.542,340.508,495.291,360.335,504.165,380.163C513.039,399.991,513.039,419.819,513.039,429.733L513.039,439.647" id="id_entity-COMBINED_MONTHLY_TOTALS-0_entity-PHYSICAL_TITLE_SAMPLE-2_1" class="edge-thickness-normal edge-pattern-solid relationshipLine" style="undefined;;;undefined" data-edge="true" data-et="edge" data-id="id_entity-COMBINED_MONTHLY_TOTALS-0_entity-PHYSICAL_TITLE_SAMPLE-2_1" data-points="W3sieCI6NDU5Ljc5NDIxMjAxNTE2NjMsInkiOjMyMC42Nzk2ODc1fSx7IngiOjUxMy4wMzkwNjI1LCJ5IjozODAuMTYzMjgwNDg3MDYwNTV9LHsieCI6NTEzLjAzOTA2MjUsInkiOjQzOS42NDY4NzM0NzQxMjExfV0=" marker-start="url(#library-data-relationships_er-onlyOneStart)" marker-end="url(#library-data-relationships_er-zeroOrMoreEnd)"></path></g><g class="edgeLabels"><g class="edgeLabel" transform="translate(126.6640625, 380.16328048706055)"><g class="label" data-id="id_entity-COMBINED_MONTHLY_TOTALS-0_entity-DIGITAL_TITLE_SAMPLE-1_0" transform="translate(-85.1484375, -19.483592987060547)"><g><rect class="background" style="" x="-2" y="0" width="170.296875" height="38.967185974121094"></rect><text y="-10.1" style=""><tspan class="text-outer-tspan" x="0" y="-0.1em" dy="1.1em"><tspan font-style="normal" class="text-inner-tspan" font-weight="normal">monthly</tspan><tspan font-style="normal" class="text-inner-tspan" font-weight="normal"> context</tspan><tspan font-style="normal" class="text-inner-tspan" font-weight="normal"> by</tspan></tspan><tspan class="text-outer-tspan" x="0" y="1em" dy="1.1em"><tspan font-style="normal" class="text-inner-tspan" font-weight="normal">year-month-usageclass</tspan></tspan></text></g></g></g><g class="edgeLabel" transform="translate(513.0390625, 380.16328048706055)"><g class="label" data-id="id_entity-COMBINED_MONTHLY_TOTALS-0_entity-PHYSICAL_TITLE_SAMPLE-2_1" transform="translate(-85.1484375, -19.483592987060547)"><g><rect class="background" style="" x="-2" y="0" width="170.296875" height="38.967185974121094"></rect><text y="-10.1" style=""><tspan class="text-outer-tspan" x="0" y="-0.1em" dy="1.1em"><tspan font-style="normal" class="text-inner-tspan" font-weight="normal">monthly</tspan><tspan font-style="normal" class="text-inner-tspan" font-weight="normal"> context</tspan><tspan font-style="normal" class="text-inner-tspan" font-weight="normal"> by</tspan></tspan><tspan class="text-outer-tspan" x="0" y="1em" dy="1.1em"><tspan font-style="normal" class="text-inner-tspan" font-weight="normal">year-month-usageclass</tspan></tspan></text></g></g></g></g><g class="nodes"><g class="node default" id="entity-COMBINED_MONTHLY_TOTALS-0" transform="translate(319.8515625, 164.33984375)"><g style=""><path d="M-145.9140625 -156.33984375 L145.9140625 -156.33984375 L145.9140625 156.33984375 L-145.9140625 156.33984375" stroke="none" stroke-width="0" fill="#f1f5f9"></path><path d="M-145.9140625 -156.33984375 C-44.75220454953376 -156.33984375, 56.409653400932484 -156.33984375, 145.9140625 -156.33984375 M-145.9140625 -156.33984375 C-84.4601588795073 -156.33984375, -23.00625525901461 -156.33984375, 145.9140625 -156.33984375 M145.9140625 -156.33984375 C145.9140625 -44.38105265701107, 145.9140625 67.57773843597786, 145.9140625 156.33984375 M145.9140625 -156.33984375 C145.9140625 -71.60612364935564, 145.9140625 13.127596451288724, 145.9140625 156.33984375 M145.9140625 156.33984375 C42.27765049149244 156.33984375, -61.358761517015125 156.33984375, -145.9140625 156.33984375 M145.9140625 156.33984375 C40.90835426066819 156.33984375, -64.09735397866362 156.33984375, -145.9140625 156.33984375 M-145.9140625 156.33984375 C-145.9140625 61.46504314480944, -145.9140625 -33.409757460381115, -145.9140625 -156.33984375 M-145.9140625 156.33984375 C-145.9140625 79.61612649939883, -145.9140625 2.8924092487976623, -145.9140625 -156.33984375" stroke="#64748b" stroke-width="1.3" fill="none" stroke-dasharray="0 0"></path></g><g style="" class="row-rect-odd"><path d="M-145.9140625 -121.66015625 L145.9140625 -121.66015625 L145.9140625 -86.79296875 L-145.9140625 -86.79296875" stroke="none" stroke-width="0" fill="hsl(210, 40%, 100%)"></path><path d="M-145.9140625 -121.66015625 C-69.18330520798507 -121.66015625, 7.547452084029857 -121.66015625, 145.9140625 -121.66015625 M-145.9140625 -121.66015625 C-30.424267820564708 -121.66015625, 85.06552685887058 -121.66015625, 145.9140625 -121.66015625 M145.9140625 -121.66015625 C145.9140625 -112.47815667838539, 145.9140625 -103.29615710677078, 145.9140625 -86.79296875 M145.9140625 -121.66015625 C145.9140625 -108.90438777145802, 145.9140625 -96.14861929291605, 145.9140625 -86.79296875 M145.9140625 -86.79296875 C45.28926983708983 -86.79296875, -55.335522825820334 -86.79296875, -145.9140625 -86.79296875 M145.9140625 -86.79296875 C59.56880617623111 -86.79296875, -26.776450147537787 -86.79296875, -145.9140625 -86.79296875 M-145.9140625 -86.79296875 C-145.9140625 -99.88772670225546, -145.9140625 -112.98248465451093, -145.9140625 -121.66015625 M-145.9140625 -86.79296875 C-145.9140625 -97.19072601118043, -145.9140625 -107.58848327236085, -145.9140625 -121.66015625" stroke="#64748b" stroke-width="1.3" fill="none" stroke-dasharray="0 0"></path></g><g style="" class="row-rect-even"><path d="M-145.9140625 -86.79296875 L145.9140625 -86.79296875 L145.9140625 -52.11328125 L-145.9140625 -52.11328125" stroke="none" stroke-width="0" fill="hsl(210, 40%, 100%)"></path><path d="M-145.9140625 -86.79296875 C-66.42318684985852 -86.79296875, 13.067688800282951 -86.79296875, 145.9140625 -86.79296875 M-145.9140625 -86.79296875 C-45.8072497078776 -86.79296875, 54.299563084244795 -86.79296875, 145.9140625 -86.79296875 M145.9140625 -86.79296875 C145.9140625 -79.35456937236339, 145.9140625 -71.91616999472676, 145.9140625 -52.11328125 M145.9140625 -86.79296875 C145.9140625 -75.72911238749543, 145.9140625 -64.66525602499087, 145.9140625 -52.11328125 M145.9140625 -52.11328125 C63.96011962441416 -52.11328125, -17.993823251171676 -52.11328125, -145.9140625 -52.11328125 M145.9140625 -52.11328125 C45.19379284765759 -52.11328125, -55.52647680468482 -52.11328125, -145.9140625 -52.11328125 M-145.9140625 -52.11328125 C-145.9140625 -60.19430511574748, -145.9140625 -68.27532898149497, -145.9140625 -86.79296875 M-145.9140625 -52.11328125 C-145.9140625 -59.179487217513135, -145.9140625 -66.24569318502627, -145.9140625 -86.79296875" stroke="#64748b" stroke-width="1.3" fill="none" stroke-dasharray="0 0"></path></g><g style="" class="row-rect-odd"><path d="M-145.9140625 -52.11328125 L145.9140625 -52.11328125 L145.9140625 -17.24609375 L-145.9140625 -17.24609375" stroke="none" stroke-width="0" fill="hsl(210, 40%, 100%)"></path><path d="M-145.9140625 -52.11328125 C-74.10369826329746 -52.11328125, -2.29333402659492 -52.11328125, 145.9140625 -52.11328125 M-145.9140625 -52.11328125 C-47.44330238307933 -52.11328125, 51.027457733841345 -52.11328125, 145.9140625 -52.11328125 M145.9140625 -52.11328125 C145.9140625 -43.69273591516738, 145.9140625 -35.272190580334765, 145.9140625 -17.24609375 M145.9140625 -52.11328125 C145.9140625 -38.43669053199029, 145.9140625 -24.760099813980577, 145.9140625 -17.24609375 M145.9140625 -17.24609375 C74.13956003331322 -17.24609375, 2.365057566626433 -17.24609375, -145.9140625 -17.24609375 M145.9140625 -17.24609375 C34.138798499374914 -17.24609375, -77.63646550125017 -17.24609375, -145.9140625 -17.24609375 M-145.9140625 -17.24609375 C-145.9140625 -30.041063129771494, -145.9140625 -42.83603250954299, -145.9140625 -52.11328125 M-145.9140625 -17.24609375 C-145.9140625 -30.814447055252412, -145.9140625 -44.382800360504824, -145.9140625 -52.11328125" stroke="#64748b" stroke-width="1.3" fill="none" stroke-dasharray="0 0"></path></g><g style="" class="row-rect-even"><path d="M-145.9140625 -17.24609375 L145.9140625 -17.24609375 L145.9140625 17.43359375 L-145.9140625 17.43359375" stroke="none" stroke-width="0" fill="hsl(210, 40%, 100%)"></path><path d="M-145.9140625 -17.24609375 C-46.1011036101378 -17.24609375, 53.7118552797244 -17.24609375, 145.9140625 -17.24609375 M-145.9140625 -17.24609375 C-48.922224828050474 -17.24609375, 48.06961284389905 -17.24609375, 145.9140625 -17.24609375 M145.9140625 -17.24609375 C145.9140625 -9.786014839507704, 145.9140625 -2.325935929015408, 145.9140625 17.43359375 M145.9140625 -17.24609375 C145.9140625 -9.951766402375258, 145.9140625 -2.6574390547505153, 145.9140625 17.43359375 M145.9140625 17.43359375 C33.46674066861256 17.43359375, -78.98058116277488 17.43359375, -145.9140625 17.43359375 M145.9140625 17.43359375 C52.897847222413915 17.43359375, -40.11836805517217 17.43359375, -145.9140625 17.43359375 M-145.9140625 17.43359375 C-145.9140625 3.9801463317499746, -145.9140625 -9.47330108650005, -145.9140625 -17.24609375 M-145.9140625 17.43359375 C-145.9140625 7.3306489874896155, -145.9140625 -2.772295775020769, -145.9140625 -17.24609375" stroke="#64748b" stroke-width="1.3" fill="none" stroke-dasharray="0 0"></path></g><g style="" class="row-rect-odd"><path d="M-145.9140625 17.43359375 L145.9140625 17.43359375 L145.9140625 52.11328125 L-145.9140625 52.11328125" stroke="none" stroke-width="0" fill="hsl(210, 40%, 100%)"></path><path d="M-145.9140625 17.43359375 C-61.12320313633353 17.43359375, 23.66765622733294 17.43359375, 145.9140625 17.43359375 M-145.9140625 17.43359375 C-56.73719730028287 17.43359375, 32.439667899434255 17.43359375, 145.9140625 17.43359375 M145.9140625 17.43359375 C145.9140625 29.340682738841405, 145.9140625 41.24777172768281, 145.9140625 52.11328125 M145.9140625 17.43359375 C145.9140625 30.93018939061842, 145.9140625 44.42678503123684, 145.9140625 52.11328125 M145.9140625 52.11328125 C62.149144028456575 52.11328125, -21.61577444308685 52.11328125, -145.9140625 52.11328125 M145.9140625 52.11328125 C44.893989948288876 52.11328125, -56.12608260342225 52.11328125, -145.9140625 52.11328125 M-145.9140625 52.11328125 C-145.9140625 42.90518159337613, -145.9140625 33.69708193675225, -145.9140625 17.43359375 M-145.9140625 52.11328125 C-145.9140625 41.198406337103435, -145.9140625 30.283531424206867, -145.9140625 17.43359375" stroke="#64748b" stroke-width="1.3" fill="none" stroke-dasharray="0 0"></path></g><g style="" class="row-rect-even"><path d="M-145.9140625 52.11328125 L145.9140625 52.11328125 L145.9140625 86.98046875 L-145.9140625 86.98046875" stroke="none" stroke-width="0" fill="hsl(210, 40%, 100%)"></path><path d="M-145.9140625 52.11328125 C-69.4686032996067 52.11328125, 6.976855900786603 52.11328125, 145.9140625 52.11328125 M-145.9140625 52.11328125 C-32.037521149711736 52.11328125, 81.83902020057653 52.11328125, 145.9140625 52.11328125 M145.9140625 52.11328125 C145.9140625 63.412720150360094, 145.9140625 74.71215905072019, 145.9140625 86.98046875 M145.9140625 52.11328125 C145.9140625 61.463691967460235, 145.9140625 70.81410268492047, 145.9140625 86.98046875 M145.9140625 86.98046875 C31.91052138710971 86.98046875, -82.09301972578058 86.98046875, -145.9140625 86.98046875 M145.9140625 86.98046875 C71.54354413048418 86.98046875, -2.8269742390316424 86.98046875, -145.9140625 86.98046875 M-145.9140625 86.98046875 C-145.9140625 77.38311779704432, -145.9140625 67.78576684408866, -145.9140625 52.11328125 M-145.9140625 86.98046875 C-145.9140625 74.08867836571878, -145.9140625 61.196887981437555, -145.9140625 52.11328125" stroke="#64748b" stroke-width="1.3" fill="none" stroke-dasharray="0 0"></path></g><g style="" class="row-rect-odd"><path d="M-145.9140625 86.98046875 L145.9140625 86.98046875 L145.9140625 121.66015625 L-145.9140625 121.66015625" stroke="none" stroke-width="0" fill="hsl(210, 40%, 100%)"></path><path d="M-145.9140625 86.98046875 C-48.580168934504215 86.98046875, 48.75372463099157 86.98046875, 145.9140625 86.98046875 M-145.9140625 86.98046875 C-71.9715055801289 86.98046875, 1.9710513397421892 86.98046875, 145.9140625 86.98046875 M145.9140625 86.98046875 C145.9140625 99.0771864280658, 145.9140625 111.17390410613162, 145.9140625 121.66015625 M145.9140625 86.98046875 C145.9140625 99.48188488643775, 145.9140625 111.9833010228755, 145.9140625 121.66015625 M145.9140625 121.66015625 C30.62784825640881 121.66015625, -84.65836598718238 121.66015625, -145.9140625 121.66015625 M145.9140625 121.66015625 C52.883316505451546 121.66015625, -40.14742948909691 121.66015625, -145.9140625 121.66015625 M-145.9140625 121.66015625 C-145.9140625 109.18221463307702, -145.9140625 96.70427301615405, -145.9140625 86.98046875 M-145.9140625 121.66015625 C-145.9140625 110.77994301790316, -145.9140625 99.89972978580633, -145.9140625 86.98046875" stroke="#64748b" stroke-width="1.3" fill="none" stroke-dasharray="0 0"></path></g><g style="" class="row-rect-even"><path d="M-145.9140625 121.66015625 L145.9140625 121.66015625 L145.9140625 156.33984375 L-145.9140625 156.33984375" stroke="none" stroke-width="0" fill="hsl(210, 40%, 100%)"></path><path d="M-145.9140625 121.66015625 C-50.10171065065805 121.66015625, 45.7106411986839 121.66015625, 145.9140625 121.66015625 M-145.9140625 121.66015625 C-53.77132983639048 121.66015625, 38.37140282721904 121.66015625, 145.9140625 121.66015625 M145.9140625 121.66015625 C145.9140625 131.94647026380653, 145.9140625 142.23278427761306, 145.9140625 156.33984375 M145.9140625 121.66015625 C145.9140625 134.84645696308283, 145.9140625 148.03275767616566, 145.9140625 156.33984375 M145.9140625 156.33984375 C40.784166103524555 156.33984375, -64.34573029295089 156.33984375, -145.9140625 156.33984375 M145.9140625 156.33984375 C35.42074782091535 156.33984375, -75.0725668581693 156.33984375, -145.9140625 156.33984375 M-145.9140625 156.33984375 C-145.9140625 146.69395271218818, -145.9140625 137.04806167437636, -145.9140625 121.66015625 M-145.9140625 156.33984375 C-145.9140625 143.41551042389645, -145.9140625 130.4911770977929, -145.9140625 121.66015625" stroke="#64748b" stroke-width="1.3" fill="none" stroke-dasharray="0 0"></path></g><g class="label name" transform="translate(-120.9140625, -147.58984375)" style=""><g><rect class="background" style="stroke: none"></rect></g><text y="-10.1" style=""><tspan class="text-outer-tspan" x="0" y="-0.1em" dy="1.1em"><tspan font-style="normal" class="text-inner-tspan" font-weight="normal">COMBINED_MONTHLY_TOTALS</tspan></tspan></text></g><g class="label attribute-type" transform="translate(-133.4140625, -112.91015625)" style=""><g><rect class="background" style="stroke: none"></rect></g><text y="-10.1" style=""><tspan class="text-outer-tspan" x="0" y="-0.1em" dy="1.1em"><tspan font-style="normal" class="text-inner-tspan" font-weight="normal">int</tspan></tspan></text></g><g class="label attribute-name" transform="translate(-50.2109375, -112.91015625)" style=""><g><rect class="background" style="stroke: none"></rect></g><text y="-10.1" style=""><tspan class="text-outer-tspan" x="0" y="-0.1em" dy="1.1em"><tspan font-style="normal" class="text-inner-tspan" font-weight="normal">checkout_year</tspan></tspan></text></g><g class="label attribute-keys" transform="translate(158.4140625, -112.91015625)" style=""><g><rect class="background" style="stroke: none"></rect></g><text y="-10.1" style=""><tspan class="text-outer-tspan" x="0" y="-0.1em" dy="1.1em"></tspan></text></g><g class="label attribute-comment" transform="translate(158.4140625, -112.91015625)" style=""><g><rect class="background" style="stroke: none"></rect></g><text y="-10.1" style=""><tspan class="text-outer-tspan" x="0" y="-0.1em" dy="1.1em"></tspan></text></g><g class="label attribute-type" transform="translate(-133.4140625, -78.04296875)" style=""><g><rect class="background" style="stroke: none"></rect></g><text y="-10.1" style=""><tspan class="text-outer-tspan" x="0" y="-0.1em" dy="1.1em"><tspan font-style="normal" class="text-inner-tspan" font-weight="normal">int</tspan></tspan></text></g><g class="label attribute-name" transform="translate(-50.2109375, -78.04296875)" style=""><g><rect class="background" style="stroke: none"></rect></g><text y="-10.1" style=""><tspan class="text-outer-tspan" x="0" y="-0.1em" dy="1.1em"><tspan font-style="normal" class="text-inner-tspan" font-weight="normal">checkout_month</tspan></tspan></text></g><g class="label attribute-keys" transform="translate(158.4140625, -78.04296875)" style=""><g><rect class="background" style="stroke: none"></rect></g><text y="-10.1" style=""><tspan class="text-outer-tspan" x="0" y="-0.1em" dy="1.1em"></tspan></text></g><g class="label attribute-comment" transform="translate(158.4140625, -78.04296875)" style=""><g><rect class="background" style="stroke: none"></rect></g><text y="-10.1" style=""><tspan class="text-outer-tspan" x="0" y="-0.1em" dy="1.1em"></tspan></text></g><g class="label attribute-type" transform="translate(-133.4140625, -43.36328125)" style=""><g><rect class="background" style="stroke: none"></rect></g><text y="-10.1" style=""><tspan class="text-outer-tspan" x="0" y="-0.1em" dy="1.1em"><tspan font-style="normal" class="text-inner-tspan" font-weight="normal">string</tspan></tspan></text></g><g class="label attribute-name" transform="translate(-50.2109375, -43.36328125)" style=""><g><rect class="background" style="stroke: none"></rect></g><text y="-10.1" style=""><tspan class="text-outer-tspan" x="0" y="-0.1em" dy="1.1em"><tspan font-style="normal" class="text-inner-tspan" font-weight="normal">usageclass</tspan></tspan></text></g><g class="label attribute-keys" transform="translate(158.4140625, -43.36328125)" style=""><g><rect class="background" style="stroke: none"></rect></g><text y="-10.1" style=""><tspan class="text-outer-tspan" x="0" y="-0.1em" dy="1.1em"></tspan></text></g><g class="label attribute-comment" transform="translate(158.4140625, -43.36328125)" style=""><g><rect class="background" style="stroke: none"></rect></g><text y="-10.1" style=""><tspan class="text-outer-tspan" x="0" y="-0.1em" dy="1.1em"></tspan></text></g><g class="label attribute-type" transform="translate(-133.4140625, -8.49609375)" style=""><g><rect class="background" style="stroke: none"></rect></g><text y="-10.1" style=""><tspan class="text-outer-tspan" x="0" y="-0.1em" dy="1.1em"><tspan font-style="normal" class="text-inner-tspan" font-weight="normal">int</tspan></tspan></text></g><g class="label attribute-name" transform="translate(-50.2109375, -8.49609375)" style=""><g><rect class="background" style="stroke: none"></rect></g><text y="-10.1" style=""><tspan class="text-outer-tspan" x="0" y="-0.1em" dy="1.1em"><tspan font-style="normal" class="text-inner-tspan" font-weight="normal">total_checkouts</tspan></tspan></text></g><g class="label attribute-keys" transform="translate(158.4140625, -8.49609375)" style=""><g><rect class="background" style="stroke: none"></rect></g><text y="-10.1" style=""><tspan class="text-outer-tspan" x="0" y="-0.1em" dy="1.1em"></tspan></text></g><g class="label attribute-comment" transform="translate(158.4140625, -8.49609375)" style=""><g><rect class="background" style="stroke: none"></rect></g><text y="-10.1" style=""><tspan class="text-outer-tspan" x="0" y="-0.1em" dy="1.1em"></tspan></text></g><g class="label attribute-type" transform="translate(-133.4140625, 26.18359375)" style=""><g><rect class="background" style="stroke: none"></rect></g><text y="-10.1" style=""><tspan class="text-outer-tspan" x="0" y="-0.1em" dy="1.1em"><tspan font-style="normal" class="text-inner-tspan" font-weight="normal">int</tspan></tspan></text></g><g class="label attribute-name" transform="translate(-50.2109375, 26.18359375)" style=""><g><rect class="background" style="stroke: none"></rect></g><text y="-10.1" style=""><tspan class="text-outer-tspan" x="0" y="-0.1em" dy="1.1em"><tspan font-style="normal" class="text-inner-tspan" font-weight="normal">month_total_checkouts</tspan></tspan></text></g><g class="label attribute-keys" transform="translate(158.4140625, 26.18359375)" style=""><g><rect class="background" style="stroke: none"></rect></g><text y="-10.1" style=""><tspan class="text-outer-tspan" x="0" y="-0.1em" dy="1.1em"></tspan></text></g><g class="label attribute-comment" transform="translate(158.4140625, 26.18359375)" style=""><g><rect class="background" style="stroke: none"></rect></g><text y="-10.1" style=""><tspan class="text-outer-tspan" x="0" y="-0.1em" dy="1.1em"></tspan></text></g><g class="label attribute-type" transform="translate(-133.4140625, 60.86328125)" style=""><g><rect class="background" style="stroke: none"></rect></g><text y="-10.1" style=""><tspan class="text-outer-tspan" x="0" y="-0.1em" dy="1.1em"><tspan font-style="normal" class="text-inner-tspan" font-weight="normal">float</tspan></tspan></text></g><g class="label attribute-name" transform="translate(-50.2109375, 60.86328125)" style=""><g><rect class="background" style="stroke: none"></rect></g><text y="-10.1" style=""><tspan class="text-outer-tspan" x="0" y="-0.1em" dy="1.1em"><tspan font-style="normal" class="text-inner-tspan" font-weight="normal">usageclass_share</tspan></tspan></text></g><g class="label attribute-keys" transform="translate(158.4140625, 60.86328125)" style=""><g><rect class="background" style="stroke: none"></rect></g><text y="-10.1" style=""><tspan class="text-outer-tspan" x="0" y="-0.1em" dy="1.1em"></tspan></text></g><g class="label attribute-comment" transform="translate(158.4140625, 60.86328125)" style=""><g><rect class="background" style="stroke: none"></rect></g><text y="-10.1" style=""><tspan class="text-outer-tspan" x="0" y="-0.1em" dy="1.1em"></tspan></text></g><g class="label attribute-type" transform="translate(-133.4140625, 95.73046875)" style=""><g><rect class="background" style="stroke: none"></rect></g><text y="-10.1" style=""><tspan class="text-outer-tspan" x="0" y="-0.1em" dy="1.1em"><tspan font-style="normal" class="text-inner-tspan" font-weight="normal">int</tspan></tspan></text></g><g class="label attribute-name" transform="translate(-50.2109375, 95.73046875)" style=""><g><rect class="background" style="stroke: none"></rect></g><text y="-10.1" style=""><tspan class="text-outer-tspan" x="0" y="-0.1em" dy="1.1em"><tspan font-style="normal" class="text-inner-tspan" font-weight="normal">title_month_rows</tspan></tspan></text></g><g class="label attribute-keys" transform="translate(158.4140625, 95.73046875)" style=""><g><rect class="background" style="stroke: none"></rect></g><text y="-10.1" style=""><tspan class="text-outer-tspan" x="0" y="-0.1em" dy="1.1em"></tspan></text></g><g class="label attribute-comment" transform="translate(158.4140625, 95.73046875)" style=""><g><rect class="background" style="stroke: none"></rect></g><text y="-10.1" style=""><tspan class="text-outer-tspan" x="0" y="-0.1em" dy="1.1em"></tspan></text></g><g class="label attribute-type" transform="translate(-133.4140625, 130.41015625)" style=""><g><rect class="background" style="stroke: none"></rect></g><text y="-10.1" style=""><tspan class="text-outer-tspan" x="0" y="-0.1em" dy="1.1em"><tspan font-style="normal" class="text-inner-tspan" font-weight="normal">int</tspan></tspan></text></g><g class="label attribute-name" transform="translate(-50.2109375, 130.41015625)" style=""><g><rect class="background" style="stroke: none"></rect></g><text y="-10.1" style=""><tspan class="text-outer-tspan" x="0" y="-0.1em" dy="1.1em"><tspan font-style="normal" class="text-inner-tspan" font-weight="normal">sample_rows</tspan></tspan></text></g><g class="label attribute-keys" transform="translate(158.4140625, 130.41015625)" style=""><g><rect class="background" style="stroke: none"></rect></g><text y="-10.1" style=""><tspan class="text-outer-tspan" x="0" y="-0.1em" dy="1.1em"></tspan></text></g><g class="label attribute-comment" transform="translate(158.4140625, 130.41015625)" style=""><g><rect class="background" style="stroke: none"></rect></g><text y="-10.1" style=""><tspan class="text-outer-tspan" x="0" y="-0.1em" dy="1.1em"></tspan></text></g><g class="divider"><path d="M-145.9140625 -121.66015625 C-36.814753979471874 -121.66015625, 72.28455454105625 -121.66015625, 145.9140625 -121.66015625 M-145.9140625 -121.66015625 C-47.20568445622463 -121.66015625, 51.50269358755074 -121.66015625, 145.9140625 -121.66015625" stroke="#64748b" stroke-width="1.3" fill="none" stroke-dasharray="0 0"></path></g><g class="divider"><path d="M-62.7109375 -121.66015625 C-62.7109375 -29.887382857743717, -62.7109375 61.88539053451257, -62.7109375 156.33984375 M-62.7109375 -121.66015625 C-62.7109375 -58.49477386077797, -62.7109375 4.670608528444063, -62.7109375 156.33984375" stroke="#64748b" stroke-width="1.3" fill="none" stroke-dasharray="0 0"></path></g><g class="divider"><path d="M-145.9140625 -121.66015625 C-74.20706735981375 -121.66015625, -2.500072219627498 -121.66015625, 145.9140625 -121.66015625 M-145.9140625 -121.66015625 C-45.38517162011979 -121.66015625, 55.14371925976042 -121.66015625, 145.9140625 -121.66015625" stroke="#64748b" stroke-width="1.3" fill="none" stroke-dasharray="0 0"></path></g></g><g class="node default" id="entity-DIGITAL_TITLE_SAMPLE-1" transform="translate(126.6640625, 683.2562484741211)"><g style=""><path d="M-118.6640625 -243.609375 L118.6640625 -243.609375 L118.6640625 243.609375 L-118.6640625 243.609375" stroke="none" stroke-width="0" fill="#f1f5f9"></path><path d="M-118.6640625 -243.609375 C-46.290719102169064 -243.609375, 26.082624295661873 -243.609375, 118.6640625 -243.609375 M-118.6640625 -243.609375 C-53.36272701143889 -243.609375, 11.938608477122216 -243.609375, 118.6640625 -243.609375 M118.6640625 -243.609375 C118.6640625 -86.38891557850502, 118.6640625 70.83154384298996, 118.6640625 243.609375 M118.6640625 -243.609375 C118.6640625 -101.01974292972491, 118.6640625 41.569889140550174, 118.6640625 243.609375 M118.6640625 243.609375 C38.66175675225644 243.609375, -41.340548995487126 243.609375, -118.6640625 243.609375 M118.6640625 243.609375 C49.674187866876466 243.609375, -19.31568676624707 243.609375, -118.6640625 243.609375 M-118.6640625 243.609375 C-118.6640625 104.77684042727529, -118.6640625 -34.05569414544942, -118.6640625 -243.609375 M-118.6640625 243.609375 C-118.6640625 122.96873618082817, -118.6640625 2.328097361656347, -118.6640625 -243.609375" stroke="#64748b" stroke-width="1.3" fill="none" stroke-dasharray="0 0"></path></g><g style="" class="row-rect-odd"><path d="M-118.6640625 -208.9296875 L118.6640625 -208.9296875 L118.6640625 -174.0625 L-118.6640625 -174.0625" stroke="none" stroke-width="0" fill="hsl(210, 40%, 100%)"></path><path d="M-118.6640625 -208.9296875 C-44.02624241736271 -208.9296875, 30.61157766527458 -208.9296875, 118.6640625 -208.9296875 M-118.6640625 -208.9296875 C-49.903232285945876 -208.9296875, 18.857597928108248 -208.9296875, 118.6640625 -208.9296875 M118.6640625 -208.9296875 C118.6640625 -199.1678384339067, 118.6640625 -189.40598936781342, 118.6640625 -174.0625 M118.6640625 -208.9296875 C118.6640625 -197.66384853356448, 118.6640625 -186.39800956712895, 118.6640625 -174.0625 M118.6640625 -174.0625 C67.70105892752073 -174.0625, 16.738055355041467 -174.0625, -118.6640625 -174.0625 M118.6640625 -174.0625 C40.48616946687771 -174.0625, -37.691723566244576 -174.0625, -118.6640625 -174.0625 M-118.6640625 -174.0625 C-118.6640625 -185.7867757399008, -118.6640625 -197.5110514798016, -118.6640625 -208.9296875 M-118.6640625 -174.0625 C-118.6640625 -182.39427472687714, -118.6640625 -190.7260494537543, -118.6640625 -208.9296875" stroke="#64748b" stroke-width="1.3" fill="none" stroke-dasharray="0 0"></path></g><g style="" class="row-rect-even"><path d="M-118.6640625 -174.0625 L118.6640625 -174.0625 L118.6640625 -139.1953125 L-118.6640625 -139.1953125" stroke="none" stroke-width="0" fill="hsl(210, 40%, 100%)"></path><path d="M-118.6640625 -174.0625 C-24.56748631194519 -174.0625, 69.52908987610962 -174.0625, 118.6640625 -174.0625 M-118.6640625 -174.0625 C-60.73791152240491 -174.0625, -2.8117605448098146 -174.0625, 118.6640625 -174.0625 M118.6640625 -174.0625 C118.6640625 -165.5174034503852, 118.6640625 -156.97230690077035, 118.6640625 -139.1953125 M118.6640625 -174.0625 C118.6640625 -160.7522295528991, 118.6640625 -147.44195910579822, 118.6640625 -139.1953125 M118.6640625 -139.1953125 C33.06307498202901 -139.1953125, -52.537912535941985 -139.1953125, -118.6640625 -139.1953125 M118.6640625 -139.1953125 C40.145367700569636 -139.1953125, -38.37332709886073 -139.1953125, -118.6640625 -139.1953125 M-118.6640625 -139.1953125 C-118.6640625 -148.99665005550287, -118.6640625 -158.7979876110057, -118.6640625 -174.0625 M-118.6640625 -139.1953125 C-118.6640625 -147.22210486058023, -118.6640625 -155.24889722116046, -118.6640625 -174.0625" stroke="#64748b" stroke-width="1.3" fill="none" stroke-dasharray="0 0"></path></g><g style="" class="row-rect-odd"><path d="M-118.6640625 -139.1953125 L118.6640625 -139.1953125 L118.6640625 -104.328125 L-118.6640625 -104.328125" stroke="none" stroke-width="0" fill="hsl(210, 40%, 100%)"></path><path d="M-118.6640625 -139.1953125 C-61.808681270084996 -139.1953125, -4.953300040169992 -139.1953125, 118.6640625 -139.1953125 M-118.6640625 -139.1953125 C-30.67348975893364 -139.1953125, 57.31708298213272 -139.1953125, 118.6640625 -139.1953125 M118.6640625 -139.1953125 C118.6640625 -127.2277663207851, 118.6640625 -115.26022014157017, 118.6640625 -104.328125 M118.6640625 -139.1953125 C118.6640625 -125.9050538797046, 118.6640625 -112.61479525940919, 118.6640625 -104.328125 M118.6640625 -104.328125 C30.115244940890904 -104.328125, -58.43357261821819 -104.328125, -118.6640625 -104.328125 M118.6640625 -104.328125 C58.101058256619545 -104.328125, -2.4619459867609095 -104.328125, -118.6640625 -104.328125 M-118.6640625 -104.328125 C-118.6640625 -113.55629776973262, -118.6640625 -122.78447053946526, -118.6640625 -139.1953125 M-118.6640625 -104.328125 C-118.6640625 -113.4163484419474, -118.6640625 -122.5045718838948, -118.6640625 -139.1953125" stroke="#64748b" stroke-width="1.3" fill="none" stroke-dasharray="0 0"></path></g><g style="" class="row-rect-even"><path d="M-118.6640625 -104.328125 L118.6640625 -104.328125 L118.6640625 -69.4609375 L-118.6640625 -69.4609375" stroke="none" stroke-width="0" fill="hsl(210, 40%, 100%)"></path><path d="M-118.6640625 -104.328125 C-27.78316034300127 -104.328125, 63.09774181399746 -104.328125, 118.6640625 -104.328125 M-118.6640625 -104.328125 C-58.02014515166108 -104.328125, 2.623772196677834 -104.328125, 118.6640625 -104.328125 M118.6640625 -104.328125 C118.6640625 -91.73124338898887, 118.6640625 -79.13436177797774, 118.6640625 -69.4609375 M118.6640625 -104.328125 C118.6640625 -96.11588148329756, 118.6640625 -87.90363796659511, 118.6640625 -69.4609375 M118.6640625 -69.4609375 C45.983869962603634 -69.4609375, -26.69632257479273 -69.4609375, -118.6640625 -69.4609375 M118.6640625 -69.4609375 C33.28480995207444 -69.4609375, -52.09444259585112 -69.4609375, -118.6640625 -69.4609375 M-118.6640625 -69.4609375 C-118.6640625 -78.92577025372911, -118.6640625 -88.39060300745821, -118.6640625 -104.328125 M-118.6640625 -69.4609375 C-118.6640625 -79.79701962454511, -118.6640625 -90.13310174909023, -118.6640625 -104.328125" stroke="#64748b" stroke-width="1.3" fill="none" stroke-dasharray="0 0"></path></g><g style="" class="row-rect-odd"><path d="M-118.6640625 -69.4609375 L118.6640625 -69.4609375 L118.6640625 -34.9609375 L-118.6640625 -34.9609375" stroke="none" stroke-width="0" fill="hsl(210, 40%, 100%)"></path><path d="M-118.6640625 -69.4609375 C-66.91570014958594 -69.4609375, -15.167337799171875 -69.4609375, 118.6640625 -69.4609375 M-118.6640625 -69.4609375 C-56.079117739238285 -69.4609375, 6.50582702152343 -69.4609375, 118.6640625 -69.4609375 M118.6640625 -69.4609375 C118.6640625 -61.62611556919195, 118.6640625 -53.79129363838391, 118.6640625 -34.9609375 M118.6640625 -69.4609375 C118.6640625 -61.866865190187255, 118.6640625 -54.27279288037452, 118.6640625 -34.9609375 M118.6640625 -34.9609375 C45.99531347989249 -34.9609375, -26.673435540215024 -34.9609375, -118.6640625 -34.9609375 M118.6640625 -34.9609375 C49.33569167089493 -34.9609375, -19.992679158210137 -34.9609375, -118.6640625 -34.9609375 M-118.6640625 -34.9609375 C-118.6640625 -42.97232330575587, -118.6640625 -50.98370911151174, -118.6640625 -69.4609375 M-118.6640625 -34.9609375 C-118.6640625 -46.15152336149214, -118.6640625 -57.34210922298427, -118.6640625 -69.4609375" stroke="#64748b" stroke-width="1.3" fill="none" stroke-dasharray="0 0"></path></g><g style="" class="row-rect-even"><path d="M-118.6640625 -34.9609375 L118.6640625 -34.9609375 L118.6640625 -0.4609375 L-118.6640625 -0.4609375" stroke="none" stroke-width="0" fill="hsl(210, 40%, 100%)"></path><path d="M-118.6640625 -34.9609375 C-33.56389682170618 -34.9609375, 51.53626885658764 -34.9609375, 118.6640625 -34.9609375 M-118.6640625 -34.9609375 C-41.12220425721932 -34.9609375, 36.419653985561354 -34.9609375, 118.6640625 -34.9609375 M118.6640625 -34.9609375 C118.6640625 -27.683930549934786, 118.6640625 -20.40692359986957, 118.6640625 -0.4609375 M118.6640625 -34.9609375 C118.6640625 -21.45113857084297, 118.6640625 -7.941339641685946, 118.6640625 -0.4609375 M118.6640625 -0.4609375 C54.972683620540955 -0.4609375, -8.718695258918089 -0.4609375, -118.6640625 -0.4609375 M118.6640625 -0.4609375 C45.68074113189955 -0.4609375, -27.302580236200896 -0.4609375, -118.6640625 -0.4609375 M-118.6640625 -0.4609375 C-118.6640625 -8.69757748544649, -118.6640625 -16.93421747089298, -118.6640625 -34.9609375 M-118.6640625 -0.4609375 C-118.6640625 -12.303549339894937, -118.6640625 -24.146161179789875, -118.6640625 -34.9609375" stroke="#64748b" stroke-width="1.3" fill="none" stroke-dasharray="0 0"></path></g><g style="" class="row-rect-odd"><path d="M-118.6640625 -0.4609375 L118.6640625 -0.4609375 L118.6640625 34.40625 L-118.6640625 34.40625" stroke="none" stroke-width="0" fill="hsl(210, 40%, 100%)"></path><path d="M-118.6640625 -0.4609375 C-57.723100255201246 -0.4609375, 3.217861989597509 -0.4609375, 118.6640625 -0.4609375 M-118.6640625 -0.4609375 C-32.34988376125828 -0.4609375, 53.96429497748343 -0.4609375, 118.6640625 -0.4609375 M118.6640625 -0.4609375 C118.6640625 8.189956414535393, 118.6640625 16.840850329070786, 118.6640625 34.40625 M118.6640625 -0.4609375 C118.6640625 8.19727418675146, 118.6640625 16.85548587350292, 118.6640625 34.40625 M118.6640625 34.40625 C50.45798452838817 34.40625, -17.748093443223667 34.40625, -118.6640625 34.40625 M118.6640625 34.40625 C39.90538188869088 34.40625, -38.853298722618234 34.40625, -118.6640625 34.40625 M-118.6640625 34.40625 C-118.6640625 26.48263868682217, -118.6640625 18.55902737364434, -118.6640625 -0.4609375 M-118.6640625 34.40625 C-118.6640625 22.006525245730128, -118.6640625 9.606800491460255, -118.6640625 -0.4609375" stroke="#64748b" stroke-width="1.3" fill="none" stroke-dasharray="0 0"></path></g><g style="" class="row-rect-even"><path d="M-118.6640625 34.40625 L118.6640625 34.40625 L118.6640625 69.2734375 L-118.6640625 69.2734375" stroke="none" stroke-width="0" fill="hsl(210, 40%, 100%)"></path><path d="M-118.6640625 34.40625 C-33.73220776387518 34.40625, 51.19964697224964 34.40625, 118.6640625 34.40625 M-118.6640625 34.40625 C-44.721534053910744 34.40625, 29.22099439217851 34.40625, 118.6640625 34.40625 M118.6640625 34.40625 C118.6640625 44.662467855401644, 118.6640625 54.91868571080329, 118.6640625 69.2734375 M118.6640625 34.40625 C118.6640625 46.72821861002423, 118.6640625 59.050187220048464, 118.6640625 69.2734375 M118.6640625 69.2734375 C39.48611605224693 69.2734375, -39.691830395506145 69.2734375, -118.6640625 69.2734375 M118.6640625 69.2734375 C66.01721445889254 69.2734375, 13.370366417785078 69.2734375, -118.6640625 69.2734375 M-118.6640625 69.2734375 C-118.6640625 57.77227942250188, -118.6640625 46.271121345003756, -118.6640625 34.40625 M-118.6640625 69.2734375 C-118.6640625 60.15736371338115, -118.6640625 51.0412899267623, -118.6640625 34.40625" stroke="#64748b" stroke-width="1.3" fill="none" stroke-dasharray="0 0"></path></g><g style="" class="row-rect-odd"><path d="M-118.6640625 69.2734375 L118.6640625 69.2734375 L118.6640625 104.140625 L-118.6640625 104.140625" stroke="none" stroke-width="0" fill="hsl(210, 40%, 100%)"></path><path d="M-118.6640625 69.2734375 C-37.53809308116925 69.2734375, 43.5878763376615 69.2734375, 118.6640625 69.2734375 M-118.6640625 69.2734375 C-43.88759577244342 69.2734375, 30.888870955113163 69.2734375, 118.6640625 69.2734375 M118.6640625 69.2734375 C118.6640625 80.61894951450445, 118.6640625 91.9644615290089, 118.6640625 104.140625 M118.6640625 69.2734375 C118.6640625 78.06820434445939, 118.6640625 86.86297118891879, 118.6640625 104.140625 M118.6640625 104.140625 C35.8160411228114 104.140625, -47.0319802543772 104.140625, -118.6640625 104.140625 M118.6640625 104.140625 C65.78143167300112 104.140625, 12.898800846002246 104.140625, -118.6640625 104.140625 M-118.6640625 104.140625 C-118.6640625 92.78380387639469, -118.6640625 81.42698275278937, -118.6640625 69.2734375 M-118.6640625 104.140625 C-118.6640625 93.64495856890662, -118.6640625 83.14929213781323, -118.6640625 69.2734375" stroke="#64748b" stroke-width="1.3" fill="none" stroke-dasharray="0 0"></path></g><g style="" class="row-rect-even"><path d="M-118.6640625 104.140625 L118.6640625 104.140625 L118.6640625 139.0078125 L-118.6640625 139.0078125" stroke="none" stroke-width="0" fill="hsl(210, 40%, 100%)"></path><path d="M-118.6640625 104.140625 C-39.648936837027165 104.140625, 39.36618882594567 104.140625, 118.6640625 104.140625 M-118.6640625 104.140625 C-62.34224605210975 104.140625, -6.020429604219501 104.140625, 118.6640625 104.140625 M118.6640625 104.140625 C118.6640625 115.32665976818976, 118.6640625 126.51269453637951, 118.6640625 139.0078125 M118.6640625 104.140625 C118.6640625 116.59551804313881, 118.6640625 129.05041108627762, 118.6640625 139.0078125 M118.6640625 139.0078125 C36.757066631711766 139.0078125, -45.14992923657647 139.0078125, -118.6640625 139.0078125 M118.6640625 139.0078125 C49.88156705535485 139.0078125, -18.9009283892903 139.0078125, -118.6640625 139.0078125 M-118.6640625 139.0078125 C-118.6640625 128.42290542730916, -118.6640625 117.83799835461829, -118.6640625 104.140625 M-118.6640625 139.0078125 C-118.6640625 131.06875657462604, -118.6640625 123.12970064925209, -118.6640625 104.140625" stroke="#64748b" stroke-width="1.3" fill="none" stroke-dasharray="0 0"></path></g><g style="" class="row-rect-odd"><path d="M-118.6640625 139.0078125 L118.6640625 139.0078125 L118.6640625 173.875 L-118.6640625 173.875" stroke="none" stroke-width="0" fill="hsl(210, 40%, 100%)"></path><path d="M-118.6640625 139.0078125 C-37.87240620531172 139.0078125, 42.91925008937656 139.0078125, 118.6640625 139.0078125 M-118.6640625 139.0078125 C-30.535163579334238 139.0078125, 57.593735341331524 139.0078125, 118.6640625 139.0078125 M118.6640625 139.0078125 C118.6640625 149.8822845766319, 118.6640625 160.75675665326378, 118.6640625 173.875 M118.6640625 139.0078125 C118.6640625 147.56711159238, 118.6640625 156.12641068475997, 118.6640625 173.875 M118.6640625 173.875 C36.23425427406045 173.875, -46.195553951879106 173.875, -118.6640625 173.875 M118.6640625 173.875 C43.31639751742233 173.875, -32.03126746515534 173.875, -118.6640625 173.875 M-118.6640625 173.875 C-118.6640625 165.37579360332623, -118.6640625 156.87658720665243, -118.6640625 139.0078125 M-118.6640625 173.875 C-118.6640625 163.43945972123316, -118.6640625 153.0039194424663, -118.6640625 139.0078125" stroke="#64748b" stroke-width="1.3" fill="none" stroke-dasharray="0 0"></path></g><g style="" class="row-rect-even"><path d="M-118.6640625 173.875 L118.6640625 173.875 L118.6640625 208.7421875 L-118.6640625 208.7421875" stroke="none" stroke-width="0" fill="hsl(210, 40%, 100%)"></path><path d="M-118.6640625 173.875 C-41.39868541201025 173.875, 35.866691675979496 173.875, 118.6640625 173.875 M-118.6640625 173.875 C-66.15808637991523 173.875, -13.652110259830451 173.875, 118.6640625 173.875 M118.6640625 173.875 C118.6640625 187.1583806525509, 118.6640625 200.44176130510183, 118.6640625 208.7421875 M118.6640625 173.875 C118.6640625 185.68523483738886, 118.6640625 197.49546967477772, 118.6640625 208.7421875 M118.6640625 208.7421875 C48.87369836960653 208.7421875, -20.91666576078694 208.7421875, -118.6640625 208.7421875 M118.6640625 208.7421875 C47.90118384019121 208.7421875, -22.861694819617583 208.7421875, -118.6640625 208.7421875 M-118.6640625 208.7421875 C-118.6640625 201.65749524136137, -118.6640625 194.57280298272275, -118.6640625 173.875 M-118.6640625 208.7421875 C-118.6640625 198.60209437075054, -118.6640625 188.46200124150104, -118.6640625 173.875" stroke="#64748b" stroke-width="1.3" fill="none" stroke-dasharray="0 0"></path></g><g style="" class="row-rect-odd"><path d="M-118.6640625 208.7421875 L118.6640625 208.7421875 L118.6640625 243.609375 L-118.6640625 243.609375" stroke="none" stroke-width="0" fill="hsl(210, 40%, 100%)"></path><path d="M-118.6640625 208.7421875 C-41.270607483439505 208.7421875, 36.12284753312099 208.7421875, 118.6640625 208.7421875 M-118.6640625 208.7421875 C-61.77993499432654 208.7421875, -4.895807488653077 208.7421875, 118.6640625 208.7421875 M118.6640625 208.7421875 C118.6640625 219.25767479897004, 118.6640625 229.7731620979401, 118.6640625 243.609375 M118.6640625 208.7421875 C118.6640625 222.04145779117871, 118.6640625 235.34072808235746, 118.6640625 243.609375 M118.6640625 243.609375 C50.7340032553748 243.609375, -17.196055989250397 243.609375, -118.6640625 243.609375 M118.6640625 243.609375 C27.34037998340517 243.609375, -63.98330253318966 243.609375, -118.6640625 243.609375 M-118.6640625 243.609375 C-118.6640625 230.2388349047493, -118.6640625 216.8682948094986, -118.6640625 208.7421875 M-118.6640625 243.609375 C-118.6640625 235.34122257982185, -118.6640625 227.07307015964366, -118.6640625 208.7421875" stroke="#64748b" stroke-width="1.3" fill="none" stroke-dasharray="0 0"></path></g><g class="label name" transform="translate(-93.6640625, -234.859375)" style=""><g><rect class="background" style="stroke: none"></rect></g><text y="-10.1" style=""><tspan class="text-outer-tspan" x="0" y="-0.1em" dy="1.1em"><tspan font-style="normal" class="text-inner-tspan" font-weight="normal">DIGITAL_TITLE_SAMPLE</tspan></tspan></text></g><g class="label attribute-type" transform="translate(-106.1640625, -200.1796875)" style=""><g><rect class="background" style="stroke: none"></rect></g><text y="-10.1" style=""><tspan class="text-outer-tspan" x="0" y="-0.1em" dy="1.1em"><tspan font-style="normal" class="text-inner-tspan" font-weight="normal">string</tspan></tspan></text></g><g class="label attribute-name" transform="translate(-22.1953125, -200.1796875)" style=""><g><rect class="background" style="stroke: none"></rect></g><text y="-10.1" style=""><tspan class="text-outer-tspan" x="0" y="-0.1em" dy="1.1em"><tspan font-style="normal" class="text-inner-tspan" font-weight="normal">usageclass</tspan></tspan></text></g><g class="label attribute-keys" transform="translate(131.1640625, -200.1796875)" style=""><g><rect class="background" style="stroke: none"></rect></g><text y="-10.1" style=""><tspan class="text-outer-tspan" x="0" y="-0.1em" dy="1.1em"></tspan></text></g><g class="label attribute-comment" transform="translate(131.1640625, -200.1796875)" style=""><g><rect class="background" style="stroke: none"></rect></g><text y="-10.1" style=""><tspan class="text-outer-tspan" x="0" y="-0.1em" dy="1.1em"></tspan></text></g><g class="label attribute-type" transform="translate(-106.1640625, -165.3125)" style=""><g><rect class="background" style="stroke: none"></rect></g><text y="-10.1" style=""><tspan class="text-outer-tspan" x="0" y="-0.1em" dy="1.1em"><tspan font-style="normal" class="text-inner-tspan" font-weight="normal">string</tspan></tspan></text></g><g class="label attribute-name" transform="translate(-22.1953125, -165.3125)" style=""><g><rect class="background" style="stroke: none"></rect></g><text y="-10.1" style=""><tspan class="text-outer-tspan" x="0" y="-0.1em" dy="1.1em"><tspan font-style="normal" class="text-inner-tspan" font-weight="normal">checkouttype</tspan></tspan></text></g><g class="label attribute-keys" transform="translate(131.1640625, -165.3125)" style=""><g><rect class="background" style="stroke: none"></rect></g><text y="-10.1" style=""><tspan class="text-outer-tspan" x="0" y="-0.1em" dy="1.1em"></tspan></text></g><g class="label attribute-comment" transform="translate(131.1640625, -165.3125)" style=""><g><rect class="background" style="stroke: none"></rect></g><text y="-10.1" style=""><tspan class="text-outer-tspan" x="0" y="-0.1em" dy="1.1em"></tspan></text></g><g class="label attribute-type" transform="translate(-106.1640625, -130.4453125)" style=""><g><rect class="background" style="stroke: none"></rect></g><text y="-10.1" style=""><tspan class="text-outer-tspan" x="0" y="-0.1em" dy="1.1em"><tspan font-style="normal" class="text-inner-tspan" font-weight="normal">string</tspan></tspan></text></g><g class="label attribute-name" transform="translate(-22.1953125, -130.4453125)" style=""><g><rect class="background" style="stroke: none"></rect></g><text y="-10.1" style=""><tspan class="text-outer-tspan" x="0" y="-0.1em" dy="1.1em"><tspan font-style="normal" class="text-inner-tspan" font-weight="normal">materialtype</tspan></tspan></text></g><g class="label attribute-keys" transform="translate(131.1640625, -130.4453125)" style=""><g><rect class="background" style="stroke: none"></rect></g><text y="-10.1" style=""><tspan class="text-outer-tspan" x="0" y="-0.1em" dy="1.1em"></tspan></text></g><g class="label attribute-comment" transform="translate(131.1640625, -130.4453125)" style=""><g><rect class="background" style="stroke: none"></rect></g><text y="-10.1" style=""><tspan class="text-outer-tspan" x="0" y="-0.1em" dy="1.1em"></tspan></text></g><g class="label attribute-type" transform="translate(-106.1640625, -95.578125)" style=""><g><rect class="background" style="stroke: none"></rect></g><text y="-10.1" style=""><tspan class="text-outer-tspan" x="0" y="-0.1em" dy="1.1em"><tspan font-style="normal" class="text-inner-tspan" font-weight="normal">int</tspan></tspan></text></g><g class="label attribute-name" transform="translate(-22.1953125, -95.578125)" style=""><g><rect class="background" style="stroke: none"></rect></g><text y="-10.1" style=""><tspan class="text-outer-tspan" x="0" y="-0.1em" dy="1.1em"><tspan font-style="normal" class="text-inner-tspan" font-weight="normal">checkoutyear</tspan></tspan></text></g><g class="label attribute-keys" transform="translate(131.1640625, -95.578125)" style=""><g><rect class="background" style="stroke: none"></rect></g><text y="-10.1" style=""><tspan class="text-outer-tspan" x="0" y="-0.1em" dy="1.1em"></tspan></text></g><g class="label attribute-comment" transform="translate(131.1640625, -95.578125)" style=""><g><rect class="background" style="stroke: none"></rect></g><text y="-10.1" style=""><tspan class="text-outer-tspan" x="0" y="-0.1em" dy="1.1em"></tspan></text></g><g class="label attribute-type" transform="translate(-106.1640625, -60.7109375)" style=""><g><rect class="background" style="stroke: none"></rect></g><text y="-10.1" style=""><tspan class="text-outer-tspan" x="0" y="-0.1em" dy="1.1em"><tspan font-style="normal" class="text-inner-tspan" font-weight="normal">int</tspan></tspan></text></g><g class="label attribute-name" transform="translate(-22.1953125, -60.7109375)" style=""><g><rect class="background" style="stroke: none"></rect></g><text y="-10.1" style=""><tspan class="text-outer-tspan" x="0" y="-0.1em" dy="1.1em"><tspan font-style="normal" class="text-inner-tspan" font-weight="normal">checkoutmonth</tspan></tspan></text></g><g class="label attribute-keys" transform="translate(131.1640625, -60.7109375)" style=""><g><rect class="background" style="stroke: none"></rect></g><text y="-10.1" style=""><tspan class="text-outer-tspan" x="0" y="-0.1em" dy="1.1em"></tspan></text></g><g class="label attribute-comment" transform="translate(131.1640625, -60.7109375)" style=""><g><rect class="background" style="stroke: none"></rect></g><text y="-10.1" style=""><tspan class="text-outer-tspan" x="0" y="-0.1em" dy="1.1em"></tspan></text></g><g class="label attribute-type" transform="translate(-106.1640625, -26.2109375)" style=""><g><rect class="background" style="stroke: none"></rect></g><text y="-10.1" style=""><tspan class="text-outer-tspan" x="0" y="-0.1em" dy="1.1em"><tspan font-style="normal" class="text-inner-tspan" font-weight="normal">int</tspan></tspan></text></g><g class="label attribute-name" transform="translate(-22.1953125, -26.2109375)" style=""><g><rect class="background" style="stroke: none"></rect></g><text y="-10.1" style=""><tspan class="text-outer-tspan" x="0" y="-0.1em" dy="1.1em"><tspan font-style="normal" class="text-inner-tspan" font-weight="normal">checkouts</tspan></tspan></text></g><g class="label attribute-keys" transform="translate(131.1640625, -26.2109375)" style=""><g><rect class="background" style="stroke: none"></rect></g><text y="-10.1" style=""><tspan class="text-outer-tspan" x="0" y="-0.1em" dy="1.1em"></tspan></text></g><g class="label attribute-comment" transform="translate(131.1640625, -26.2109375)" style=""><g><rect class="background" style="stroke: none"></rect></g><text y="-10.1" style=""><tspan class="text-outer-tspan" x="0" y="-0.1em" dy="1.1em"></tspan></text></g><g class="label attribute-type" transform="translate(-106.1640625, 8.2890625)" style=""><g><rect class="background" style="stroke: none"></rect></g><text y="-10.1" style=""><tspan class="text-outer-tspan" x="0" y="-0.1em" dy="1.1em"><tspan font-style="normal" class="text-inner-tspan" font-weight="normal">string</tspan></tspan></text></g><g class="label attribute-name" transform="translate(-22.1953125, 8.2890625)" style=""><g><rect class="background" style="stroke: none"></rect></g><text y="-10.1" style=""><tspan class="text-outer-tspan" x="0" y="-0.1em" dy="1.1em"><tspan font-style="normal" class="text-inner-tspan" font-weight="normal">title</tspan></tspan></text></g><g class="label attribute-keys" transform="translate(131.1640625, 8.2890625)" style=""><g><rect class="background" style="stroke: none"></rect></g><text y="-10.1" style=""><tspan class="text-outer-tspan" x="0" y="-0.1em" dy="1.1em"></tspan></text></g><g class="label attribute-comment" transform="translate(131.1640625, 8.2890625)" style=""><g><rect class="background" style="stroke: none"></rect></g><text y="-10.1" style=""><tspan class="text-outer-tspan" x="0" y="-0.1em" dy="1.1em"></tspan></text></g><g class="label attribute-type" transform="translate(-106.1640625, 43.15625)" style=""><g><rect class="background" style="stroke: none"></rect></g><text y="-10.1" style=""><tspan class="text-outer-tspan" x="0" y="-0.1em" dy="1.1em"><tspan font-style="normal" class="text-inner-tspan" font-weight="normal">string</tspan></tspan></text></g><g class="label attribute-name" transform="translate(-22.1953125, 43.15625)" style=""><g><rect class="background" style="stroke: none"></rect></g><text y="-10.1" style=""><tspan class="text-outer-tspan" x="0" y="-0.1em" dy="1.1em"><tspan font-style="normal" class="text-inner-tspan" font-weight="normal">isbn</tspan></tspan></text></g><g class="label attribute-keys" transform="translate(131.1640625, 43.15625)" style=""><g><rect class="background" style="stroke: none"></rect></g><text y="-10.1" style=""><tspan class="text-outer-tspan" x="0" y="-0.1em" dy="1.1em"></tspan></text></g><g class="label attribute-comment" transform="translate(131.1640625, 43.15625)" style=""><g><rect class="background" style="stroke: none"></rect></g><text y="-10.1" style=""><tspan class="text-outer-tspan" x="0" y="-0.1em" dy="1.1em"></tspan></text></g><g class="label attribute-type" transform="translate(-106.1640625, 78.0234375)" style=""><g><rect class="background" style="stroke: none"></rect></g><text y="-10.1" style=""><tspan class="text-outer-tspan" x="0" y="-0.1em" dy="1.1em"><tspan font-style="normal" class="text-inner-tspan" font-weight="normal">string</tspan></tspan></text></g><g class="label attribute-name" transform="translate(-22.1953125, 78.0234375)" style=""><g><rect class="background" style="stroke: none"></rect></g><text y="-10.1" style=""><tspan class="text-outer-tspan" x="0" y="-0.1em" dy="1.1em"><tspan font-style="normal" class="text-inner-tspan" font-weight="normal">creator</tspan></tspan></text></g><g class="label attribute-keys" transform="translate(131.1640625, 78.0234375)" style=""><g><rect class="background" style="stroke: none"></rect></g><text y="-10.1" style=""><tspan class="text-outer-tspan" x="0" y="-0.1em" dy="1.1em"></tspan></text></g><g class="label attribute-comment" transform="translate(131.1640625, 78.0234375)" style=""><g><rect class="background" style="stroke: none"></rect></g><text y="-10.1" style=""><tspan class="text-outer-tspan" x="0" y="-0.1em" dy="1.1em"></tspan></text></g><g class="label attribute-type" transform="translate(-106.1640625, 112.890625)" style=""><g><rect class="background" style="stroke: none"></rect></g><text y="-10.1" style=""><tspan class="text-outer-tspan" x="0" y="-0.1em" dy="1.1em"><tspan font-style="normal" class="text-inner-tspan" font-weight="normal">string</tspan></tspan></text></g><g class="label attribute-name" transform="translate(-22.1953125, 112.890625)" style=""><g><rect class="background" style="stroke: none"></rect></g><text y="-10.1" style=""><tspan class="text-outer-tspan" x="0" y="-0.1em" dy="1.1em"><tspan font-style="normal" class="text-inner-tspan" font-weight="normal">subjects</tspan></tspan></text></g><g class="label attribute-keys" transform="translate(131.1640625, 112.890625)" style=""><g><rect class="background" style="stroke: none"></rect></g><text y="-10.1" style=""><tspan class="text-outer-tspan" x="0" y="-0.1em" dy="1.1em"></tspan></text></g><g class="label attribute-comment" transform="translate(131.1640625, 112.890625)" style=""><g><rect class="background" style="stroke: none"></rect></g><text y="-10.1" style=""><tspan class="text-outer-tspan" x="0" y="-0.1em" dy="1.1em"></tspan></text></g><g class="label attribute-type" transform="translate(-106.1640625, 147.7578125)" style=""><g><rect class="background" style="stroke: none"></rect></g><text y="-10.1" style=""><tspan class="text-outer-tspan" x="0" y="-0.1em" dy="1.1em"><tspan font-style="normal" class="text-inner-tspan" font-weight="normal">string</tspan></tspan></text></g><g class="label attribute-name" transform="translate(-22.1953125, 147.7578125)" style=""><g><rect class="background" style="stroke: none"></rect></g><text y="-10.1" style=""><tspan class="text-outer-tspan" x="0" y="-0.1em" dy="1.1em"><tspan font-style="normal" class="text-inner-tspan" font-weight="normal">publisher</tspan></tspan></text></g><g class="label attribute-keys" transform="translate(131.1640625, 147.7578125)" style=""><g><rect class="background" style="stroke: none"></rect></g><text y="-10.1" style=""><tspan class="text-outer-tspan" x="0" y="-0.1em" dy="1.1em"></tspan></text></g><g class="label attribute-comment" transform="translate(131.1640625, 147.7578125)" style=""><g><rect class="background" style="stroke: none"></rect></g><text y="-10.1" style=""><tspan class="text-outer-tspan" x="0" y="-0.1em" dy="1.1em"></tspan></text></g><g class="label attribute-type" transform="translate(-106.1640625, 182.625)" style=""><g><rect class="background" style="stroke: none"></rect></g><text y="-10.1" style=""><tspan class="text-outer-tspan" x="0" y="-0.1em" dy="1.1em"><tspan font-style="normal" class="text-inner-tspan" font-weight="normal">string</tspan></tspan></text></g><g class="label attribute-name" transform="translate(-22.1953125, 182.625)" style=""><g><rect class="background" style="stroke: none"></rect></g><text y="-10.1" style=""><tspan class="text-outer-tspan" x="0" y="-0.1em" dy="1.1em"><tspan font-style="normal" class="text-inner-tspan" font-weight="normal">publicationyear</tspan></tspan></text></g><g class="label attribute-keys" transform="translate(131.1640625, 182.625)" style=""><g><rect class="background" style="stroke: none"></rect></g><text y="-10.1" style=""><tspan class="text-outer-tspan" x="0" y="-0.1em" dy="1.1em"></tspan></text></g><g class="label attribute-comment" transform="translate(131.1640625, 182.625)" style=""><g><rect class="background" style="stroke: none"></rect></g><text y="-10.1" style=""><tspan class="text-outer-tspan" x="0" y="-0.1em" dy="1.1em"></tspan></text></g><g class="label attribute-type" transform="translate(-106.1640625, 217.4921875)" style=""><g><rect class="background" style="stroke: none"></rect></g><text y="-10.1" style=""><tspan class="text-outer-tspan" x="0" y="-0.1em" dy="1.1em"><tspan font-style="normal" class="text-inner-tspan" font-weight="normal">string</tspan></tspan></text></g><g class="label attribute-name" transform="translate(-22.1953125, 217.4921875)" style=""><g><rect class="background" style="stroke: none"></rect></g><text y="-10.1" style=""><tspan class="text-outer-tspan" x="0" y="-0.1em" dy="1.1em"><tspan font-style="normal" class="text-inner-tspan" font-weight="normal">sample_design</tspan></tspan></text></g><g class="label attribute-keys" transform="translate(131.1640625, 217.4921875)" style=""><g><rect class="background" style="stroke: none"></rect></g><text y="-10.1" style=""><tspan class="text-outer-tspan" x="0" y="-0.1em" dy="1.1em"></tspan></text></g><g class="label attribute-comment" transform="translate(131.1640625, 217.4921875)" style=""><g><rect class="background" style="stroke: none"></rect></g><text y="-10.1" style=""><tspan class="text-outer-tspan" x="0" y="-0.1em" dy="1.1em"></tspan></text></g><g class="divider"><path d="M-118.6640625 -208.9296875 C-35.413375854697094 -208.9296875, 47.83731079060581 -208.9296875, 118.6640625 -208.9296875 M-118.6640625 -208.9296875 C-41.23226572764803 -208.9296875, 36.199531044703946 -208.9296875, 118.6640625 -208.9296875" stroke="#64748b" stroke-width="1.3" fill="none" stroke-dasharray="0 0"></path></g><g class="divider"><path d="M-34.6953125 -208.9296875 C-34.6953125 -102.74985437334594, -34.6953125 3.42997875330812, -34.6953125 243.609375 M-34.6953125 -208.9296875 C-34.6953125 -60.52706964100068, -34.6953125 87.87554821799864, -34.6953125 243.609375" stroke="#64748b" stroke-width="1.3" fill="none" stroke-dasharray="0 0"></path></g><g class="divider"><path d="M-118.6640625 -208.9296875 C-59.64786786650428 -208.9296875, -0.6316732330085557 -208.9296875, 118.6640625 -208.9296875 M-118.6640625 -208.9296875 C-43.603751105903626 -208.9296875, 31.456560288192748 -208.9296875, 118.6640625 -208.9296875" stroke="#64748b" stroke-width="1.3" fill="none" stroke-dasharray="0 0"></path></g></g><g class="node default" id="entity-PHYSICAL_TITLE_SAMPLE-2" transform="translate(513.0390625, 683.2562484741211)"><g style=""><path d="M-127.7109375 -243.609375 L127.7109375 -243.609375 L127.7109375 243.609375 L-127.7109375 243.609375" stroke="none" stroke-width="0" fill="#f1f5f9"></path><path d="M-127.7109375 -243.609375 C-39.56826071799695 -243.609375, 48.5744160640061 -243.609375, 127.7109375 -243.609375 M-127.7109375 -243.609375 C-42.38438812182771 -243.609375, 42.942161256344576 -243.609375, 127.7109375 -243.609375 M127.7109375 -243.609375 C127.7109375 -117.69535898943612, 127.7109375 8.218657021127768, 127.7109375 243.609375 M127.7109375 -243.609375 C127.7109375 -120.37615603840376, 127.7109375 2.8570629231924727, 127.7109375 243.609375 M127.7109375 243.609375 C38.907486345065294 243.609375, -49.89596480986941 243.609375, -127.7109375 243.609375 M127.7109375 243.609375 C64.56037555033711 243.609375, 1.4098136006742266 243.609375, -127.7109375 243.609375 M-127.7109375 243.609375 C-127.7109375 139.34637380012242, -127.7109375 35.08337260024484, -127.7109375 -243.609375 M-127.7109375 243.609375 C-127.7109375 58.73247303959786, -127.7109375 -126.14442892080427, -127.7109375 -243.609375" stroke="#64748b" stroke-width="1.3" fill="none" stroke-dasharray="0 0"></path></g><g style="" class="row-rect-odd"><path d="M-127.7109375 -208.9296875 L127.7109375 -208.9296875 L127.7109375 -174.0625 L-127.7109375 -174.0625" stroke="none" stroke-width="0" fill="hsl(210, 40%, 100%)"></path><path d="M-127.7109375 -208.9296875 C-72.92855280769086 -208.9296875, -18.14616811538174 -208.9296875, 127.7109375 -208.9296875 M-127.7109375 -208.9296875 C-32.34088425920473 -208.9296875, 63.029168981590544 -208.9296875, 127.7109375 -208.9296875 M127.7109375 -208.9296875 C127.7109375 -200.3372074767014, 127.7109375 -191.74472745340276, 127.7109375 -174.0625 M127.7109375 -208.9296875 C127.7109375 -200.09765435599877, 127.7109375 -191.26562121199754, 127.7109375 -174.0625 M127.7109375 -174.0625 C68.4745451358047 -174.0625, 9.238152771609407 -174.0625, -127.7109375 -174.0625 M127.7109375 -174.0625 C55.771521690111115 -174.0625, -16.16789411977777 -174.0625, -127.7109375 -174.0625 M-127.7109375 -174.0625 C-127.7109375 -186.21888473547486, -127.7109375 -198.37526947094975, -127.7109375 -208.9296875 M-127.7109375 -174.0625 C-127.7109375 -182.0558674486053, -127.7109375 -190.0492348972106, -127.7109375 -208.9296875" stroke="#64748b" stroke-width="1.3" fill="none" stroke-dasharray="0 0"></path></g><g style="" class="row-rect-even"><path d="M-127.7109375 -174.0625 L127.7109375 -174.0625 L127.7109375 -139.1953125 L-127.7109375 -139.1953125" stroke="none" stroke-width="0" fill="hsl(210, 40%, 100%)"></path><path d="M-127.7109375 -174.0625 C-47.86986655536879 -174.0625, 31.971204389262425 -174.0625, 127.7109375 -174.0625 M-127.7109375 -174.0625 C-70.96427372983298 -174.0625, -14.217609959665964 -174.0625, 127.7109375 -174.0625 M127.7109375 -174.0625 C127.7109375 -163.66612212462948, 127.7109375 -153.26974424925896, 127.7109375 -139.1953125 M127.7109375 -174.0625 C127.7109375 -163.62465119388574, 127.7109375 -153.18680238777148, 127.7109375 -139.1953125 M127.7109375 -139.1953125 C59.155393176337924 -139.1953125, -9.400151147324152 -139.1953125, -127.7109375 -139.1953125 M127.7109375 -139.1953125 C36.906421574583504 -139.1953125, -53.89809435083299 -139.1953125, -127.7109375 -139.1953125 M-127.7109375 -139.1953125 C-127.7109375 -151.62327996044357, -127.7109375 -164.05124742088714, -127.7109375 -174.0625 M-127.7109375 -139.1953125 C-127.7109375 -150.99612204381623, -127.7109375 -162.79693158763243, -127.7109375 -174.0625" stroke="#64748b" stroke-width="1.3" fill="none" stroke-dasharray="0 0"></path></g><g style="" class="row-rect-odd"><path d="M-127.7109375 -139.1953125 L127.7109375 -139.1953125 L127.7109375 -104.328125 L-127.7109375 -104.328125" stroke="none" stroke-width="0" fill="hsl(210, 40%, 100%)"></path><path d="M-127.7109375 -139.1953125 C-27.556962895690404 -139.1953125, 72.59701170861919 -139.1953125, 127.7109375 -139.1953125 M-127.7109375 -139.1953125 C-73.2206870840387 -139.1953125, -18.730436668077388 -139.1953125, 127.7109375 -139.1953125 M127.7109375 -139.1953125 C127.7109375 -128.26574295551686, 127.7109375 -117.3361734110337, 127.7109375 -104.328125 M127.7109375 -139.1953125 C127.7109375 -129.64883414769167, 127.7109375 -120.10235579538336, 127.7109375 -104.328125 M127.7109375 -104.328125 C37.106403788799895 -104.328125, -53.49812992240021 -104.328125, -127.7109375 -104.328125 M127.7109375 -104.328125 C46.95331519592074 -104.328125, -33.804307108158525 -104.328125, -127.7109375 -104.328125 M-127.7109375 -104.328125 C-127.7109375 -113.01547987771852, -127.7109375 -121.70283475543704, -127.7109375 -139.1953125 M-127.7109375 -104.328125 C-127.7109375 -113.23158357200883, -127.7109375 -122.13504214401766, -127.7109375 -139.1953125" stroke="#64748b" stroke-width="1.3" fill="none" stroke-dasharray="0 0"></path></g><g style="" class="row-rect-even"><path d="M-127.7109375 -104.328125 L127.7109375 -104.328125 L127.7109375 -69.4609375 L-127.7109375 -69.4609375" stroke="none" stroke-width="0" fill="hsl(210, 40%, 100%)"></path><path d="M-127.7109375 -104.328125 C-39.41890308267243 -104.328125, 48.87313133465514 -104.328125, 127.7109375 -104.328125 M-127.7109375 -104.328125 C-72.81700804008932 -104.328125, -17.923078580178625 -104.328125, 127.7109375 -104.328125 M127.7109375 -104.328125 C127.7109375 -91.78586492873515, 127.7109375 -79.24360485747032, 127.7109375 -69.4609375 M127.7109375 -104.328125 C127.7109375 -96.97384274643673, 127.7109375 -89.61956049287348, 127.7109375 -69.4609375 M127.7109375 -69.4609375 C27.934193022198457 -69.4609375, -71.84255145560309 -69.4609375, -127.7109375 -69.4609375 M127.7109375 -69.4609375 C31.222425055405452 -69.4609375, -65.2660873891891 -69.4609375, -127.7109375 -69.4609375 M-127.7109375 -69.4609375 C-127.7109375 -78.98205745224716, -127.7109375 -88.50317740449431, -127.7109375 -104.328125 M-127.7109375 -69.4609375 C-127.7109375 -80.53785208064104, -127.7109375 -91.6147666612821, -127.7109375 -104.328125" stroke="#64748b" stroke-width="1.3" fill="none" stroke-dasharray="0 0"></path></g><g style="" class="row-rect-odd"><path d="M-127.7109375 -69.4609375 L127.7109375 -69.4609375 L127.7109375 -34.9609375 L-127.7109375 -34.9609375" stroke="none" stroke-width="0" fill="hsl(210, 40%, 100%)"></path><path d="M-127.7109375 -69.4609375 C-58.29556081891343 -69.4609375, 11.11981586217314 -69.4609375, 127.7109375 -69.4609375 M-127.7109375 -69.4609375 C-71.34245093705971 -69.4609375, -14.973964374119404 -69.4609375, 127.7109375 -69.4609375 M127.7109375 -69.4609375 C127.7109375 -60.64784579379703, 127.7109375 -51.834754087594064, 127.7109375 -34.9609375 M127.7109375 -69.4609375 C127.7109375 -58.41810845903061, 127.7109375 -47.375279418061226, 127.7109375 -34.9609375 M127.7109375 -34.9609375 C28.168732026817665 -34.9609375, -71.37347344636467 -34.9609375, -127.7109375 -34.9609375 M127.7109375 -34.9609375 C66.75617956160252 -34.9609375, 5.801421623205059 -34.9609375, -127.7109375 -34.9609375 M-127.7109375 -34.9609375 C-127.7109375 -44.254304102972355, -127.7109375 -53.547670705944704, -127.7109375 -69.4609375 M-127.7109375 -34.9609375 C-127.7109375 -42.38914726828125, -127.7109375 -49.8173570365625, -127.7109375 -69.4609375" stroke="#64748b" stroke-width="1.3" fill="none" stroke-dasharray="0 0"></path></g><g style="" class="row-rect-even"><path d="M-127.7109375 -34.9609375 L127.7109375 -34.9609375 L127.7109375 -0.4609375 L-127.7109375 -0.4609375" stroke="none" stroke-width="0" fill="hsl(210, 40%, 100%)"></path><path d="M-127.7109375 -34.9609375 C-28.99543728402567 -34.9609375, 69.72006293194866 -34.9609375, 127.7109375 -34.9609375 M-127.7109375 -34.9609375 C-40.351705851613744 -34.9609375, 47.00752579677251 -34.9609375, 127.7109375 -34.9609375 M127.7109375 -34.9609375 C127.7109375 -24.595288566083603, 127.7109375 -14.22963963216721, 127.7109375 -0.4609375 M127.7109375 -34.9609375 C127.7109375 -27.547923649218845, 127.7109375 -20.13490979843769, 127.7109375 -0.4609375 M127.7109375 -0.4609375 C64.32860926901421 -0.4609375, 0.9462810380284168 -0.4609375, -127.7109375 -0.4609375 M127.7109375 -0.4609375 C48.92537280790576 -0.4609375, -29.86019188418848 -0.4609375, -127.7109375 -0.4609375 M-127.7109375 -0.4609375 C-127.7109375 -11.880292472925719, -127.7109375 -23.299647445851438, -127.7109375 -34.9609375 M-127.7109375 -0.4609375 C-127.7109375 -10.022164243192714, -127.7109375 -19.583390986385428, -127.7109375 -34.9609375" stroke="#64748b" stroke-width="1.3" fill="none" stroke-dasharray="0 0"></path></g><g style="" class="row-rect-odd"><path d="M-127.7109375 -0.4609375 L127.7109375 -0.4609375 L127.7109375 34.40625 L-127.7109375 34.40625" stroke="none" stroke-width="0" fill="hsl(210, 40%, 100%)"></path><path d="M-127.7109375 -0.4609375 C-40.62275964435348 -0.4609375, 46.46541821129304 -0.4609375, 127.7109375 -0.4609375 M-127.7109375 -0.4609375 C-71.15095144552393 -0.4609375, -14.590965391047874 -0.4609375, 127.7109375 -0.4609375 M127.7109375 -0.4609375 C127.7109375 9.277636100576075, 127.7109375 19.01620970115215, 127.7109375 34.40625 M127.7109375 -0.4609375 C127.7109375 10.336432631399049, 127.7109375 21.133802762798098, 127.7109375 34.40625 M127.7109375 34.40625 C28.33754817509029 34.40625, -71.03584114981942 34.40625, -127.7109375 34.40625 M127.7109375 34.40625 C59.62352696596973 34.40625, -8.463883568060538 34.40625, -127.7109375 34.40625 M-127.7109375 34.40625 C-127.7109375 23.777355695105108, -127.7109375 13.148461390210215, -127.7109375 -0.4609375 M-127.7109375 34.40625 C-127.7109375 23.206176521996028, -127.7109375 12.006103043992052, -127.7109375 -0.4609375" stroke="#64748b" stroke-width="1.3" fill="none" stroke-dasharray="0 0"></path></g><g style="" class="row-rect-even"><path d="M-127.7109375 34.40625 L127.7109375 34.40625 L127.7109375 69.2734375 L-127.7109375 69.2734375" stroke="none" stroke-width="0" fill="hsl(210, 40%, 100%)"></path><path d="M-127.7109375 34.40625 C-43.30274520355553 34.40625, 41.10544709288894 34.40625, 127.7109375 34.40625 M-127.7109375 34.40625 C-63.31401063654032 34.40625, 1.082916226919366 34.40625, 127.7109375 34.40625 M127.7109375 34.40625 C127.7109375 42.876986466052884, 127.7109375 51.34772293210577, 127.7109375 69.2734375 M127.7109375 34.40625 C127.7109375 46.44644623975522, 127.7109375 58.48664247951043, 127.7109375 69.2734375 M127.7109375 69.2734375 C72.42481035502252 69.2734375, 17.138683210045045 69.2734375, -127.7109375 69.2734375 M127.7109375 69.2734375 C37.300273417958195 69.2734375, -53.11039066408361 69.2734375, -127.7109375 69.2734375 M-127.7109375 69.2734375 C-127.7109375 60.48976476392417, -127.7109375 51.70609202784834, -127.7109375 34.40625 M-127.7109375 69.2734375 C-127.7109375 61.87461634305286, -127.7109375 54.47579518610572, -127.7109375 34.40625" stroke="#64748b" stroke-width="1.3" fill="none" stroke-dasharray="0 0"></path></g><g style="" class="row-rect-odd"><path d="M-127.7109375 69.2734375 L127.7109375 69.2734375 L127.7109375 104.140625 L-127.7109375 104.140625" stroke="none" stroke-width="0" fill="hsl(210, 40%, 100%)"></path><path d="M-127.7109375 69.2734375 C-36.1935401398152 69.2734375, 55.323857220369604 69.2734375, 127.7109375 69.2734375 M-127.7109375 69.2734375 C-49.519825923107206 69.2734375, 28.67128565378559 69.2734375, 127.7109375 69.2734375 M127.7109375 69.2734375 C127.7109375 76.8112449284797, 127.7109375 84.34905235695939, 127.7109375 104.140625 M127.7109375 69.2734375 C127.7109375 82.21483210830996, 127.7109375 95.15622671661993, 127.7109375 104.140625 M127.7109375 104.140625 C42.443177870527165 104.140625, -42.82458175894567 104.140625, -127.7109375 104.140625 M127.7109375 104.140625 C28.361564158326075 104.140625, -70.98780918334785 104.140625, -127.7109375 104.140625 M-127.7109375 104.140625 C-127.7109375 91.13963440188292, -127.7109375 78.13864380376585, -127.7109375 69.2734375 M-127.7109375 104.140625 C-127.7109375 93.52412918660497, -127.7109375 82.90763337320993, -127.7109375 69.2734375" stroke="#64748b" stroke-width="1.3" fill="none" stroke-dasharray="0 0"></path></g><g style="" class="row-rect-even"><path d="M-127.7109375 104.140625 L127.7109375 104.140625 L127.7109375 139.0078125 L-127.7109375 139.0078125" stroke="none" stroke-width="0" fill="hsl(210, 40%, 100%)"></path><path d="M-127.7109375 104.140625 C-70.19021748475626 104.140625, -12.669497469512535 104.140625, 127.7109375 104.140625 M-127.7109375 104.140625 C-56.423344781397574 104.140625, 14.864247937204851 104.140625, 127.7109375 104.140625 M127.7109375 104.140625 C127.7109375 113.56388018057504, 127.7109375 122.98713536115008, 127.7109375 139.0078125 M127.7109375 104.140625 C127.7109375 112.51229846371525, 127.7109375 120.8839719274305, 127.7109375 139.0078125 M127.7109375 139.0078125 C37.777069163842356 139.0078125, -52.15679917231529 139.0078125, -127.7109375 139.0078125 M127.7109375 139.0078125 C30.424015418863405 139.0078125, -66.86290666227319 139.0078125, -127.7109375 139.0078125 M-127.7109375 139.0078125 C-127.7109375 126.51433053539827, -127.7109375 114.02084857079655, -127.7109375 104.140625 M-127.7109375 139.0078125 C-127.7109375 128.18932250895986, -127.7109375 117.37083251791972, -127.7109375 104.140625" stroke="#64748b" stroke-width="1.3" fill="none" stroke-dasharray="0 0"></path></g><g style="" class="row-rect-odd"><path d="M-127.7109375 139.0078125 L127.7109375 139.0078125 L127.7109375 173.875 L-127.7109375 173.875" stroke="none" stroke-width="0" fill="hsl(210, 40%, 100%)"></path><path d="M-127.7109375 139.0078125 C-33.14013629614641 139.0078125, 61.43066490770718 139.0078125, 127.7109375 139.0078125 M-127.7109375 139.0078125 C-51.288395773388174 139.0078125, 25.13414595322365 139.0078125, 127.7109375 139.0078125 M127.7109375 139.0078125 C127.7109375 151.88763299022725, 127.7109375 164.76745348045446, 127.7109375 173.875 M127.7109375 139.0078125 C127.7109375 146.35392493521462, 127.7109375 153.70003737042924, 127.7109375 173.875 M127.7109375 173.875 C48.72216955372056 173.875, -30.266598392558876 173.875, -127.7109375 173.875 M127.7109375 173.875 C32.946483286057244 173.875, -61.81797092788551 173.875, -127.7109375 173.875 M-127.7109375 173.875 C-127.7109375 166.4116417103715, -127.7109375 158.94828342074302, -127.7109375 139.0078125 M-127.7109375 173.875 C-127.7109375 165.11071408100656, -127.7109375 156.34642816201313, -127.7109375 139.0078125" stroke="#64748b" stroke-width="1.3" fill="none" stroke-dasharray="0 0"></path></g><g style="" class="row-rect-even"><path d="M-127.7109375 173.875 L127.7109375 173.875 L127.7109375 208.7421875 L-127.7109375 208.7421875" stroke="none" stroke-width="0" fill="hsl(210, 40%, 100%)"></path><path d="M-127.7109375 173.875 C-42.72015092515571 173.875, 42.270635649688586 173.875, 127.7109375 173.875 M-127.7109375 173.875 C-69.41139851314864 173.875, -11.111859526297266 173.875, 127.7109375 173.875 M127.7109375 173.875 C127.7109375 183.27652312477093, 127.7109375 192.67804624954186, 127.7109375 208.7421875 M127.7109375 173.875 C127.7109375 184.97623004269062, 127.7109375 196.07746008538123, 127.7109375 208.7421875 M127.7109375 208.7421875 C33.176488430498495 208.7421875, -61.35796063900301 208.7421875, -127.7109375 208.7421875 M127.7109375 208.7421875 C44.56862720345191 208.7421875, -38.57368309309618 208.7421875, -127.7109375 208.7421875 M-127.7109375 208.7421875 C-127.7109375 195.08519476952432, -127.7109375 181.42820203904864, -127.7109375 173.875 M-127.7109375 208.7421875 C-127.7109375 200.7191790348452, -127.7109375 192.69617056969042, -127.7109375 173.875" stroke="#64748b" stroke-width="1.3" fill="none" stroke-dasharray="0 0"></path></g><g style="" class="row-rect-odd"><path d="M-127.7109375 208.7421875 L127.7109375 208.7421875 L127.7109375 243.609375 L-127.7109375 243.609375" stroke="none" stroke-width="0" fill="hsl(210, 40%, 100%)"></path><path d="M-127.7109375 208.7421875 C-68.05223362019746 208.7421875, -8.39352974039491 208.7421875, 127.7109375 208.7421875 M-127.7109375 208.7421875 C-74.01960694642582 208.7421875, -20.32827639285165 208.7421875, 127.7109375 208.7421875 M127.7109375 208.7421875 C127.7109375 217.5802087609928, 127.7109375 226.4182300219856, 127.7109375 243.609375 M127.7109375 208.7421875 C127.7109375 221.81422316707585, 127.7109375 234.88625883415168, 127.7109375 243.609375 M127.7109375 243.609375 C75.9760804268845 243.609375, 24.241223353768973 243.609375, -127.7109375 243.609375 M127.7109375 243.609375 C40.16583455507907 243.609375, -47.379268389841855 243.609375, -127.7109375 243.609375 M-127.7109375 243.609375 C-127.7109375 231.2321763728069, -127.7109375 218.85497774561378, -127.7109375 208.7421875 M-127.7109375 243.609375 C-127.7109375 234.86125380498206, -127.7109375 226.1131326099641, -127.7109375 208.7421875" stroke="#64748b" stroke-width="1.3" fill="none" stroke-dasharray="0 0"></path></g><g class="label name" transform="translate(-102.7109375, -234.859375)" style=""><g><rect class="background" style="stroke: none"></rect></g><text y="-10.1" style=""><tspan class="text-outer-tspan" x="0" y="-0.1em" dy="1.1em"><tspan font-style="normal" class="text-inner-tspan" font-weight="normal">PHYSICAL_TITLE_SAMPLE</tspan></tspan></text></g><g class="label attribute-type" transform="translate(-115.2109375, -200.1796875)" style=""><g><rect class="background" style="stroke: none"></rect></g><text y="-10.1" style=""><tspan class="text-outer-tspan" x="0" y="-0.1em" dy="1.1em"><tspan font-style="normal" class="text-inner-tspan" font-weight="normal">string</tspan></tspan></text></g><g class="label attribute-name" transform="translate(-22.1953125, -200.1796875)" style=""><g><rect class="background" style="stroke: none"></rect></g><text y="-10.1" style=""><tspan class="text-outer-tspan" x="0" y="-0.1em" dy="1.1em"><tspan font-style="normal" class="text-inner-tspan" font-weight="normal">usageclass</tspan></tspan></text></g><g class="label attribute-keys" transform="translate(140.2109375, -200.1796875)" style=""><g><rect class="background" style="stroke: none"></rect></g><text y="-10.1" style=""><tspan class="text-outer-tspan" x="0" y="-0.1em" dy="1.1em"></tspan></text></g><g class="label attribute-comment" transform="translate(140.2109375, -200.1796875)" style=""><g><rect class="background" style="stroke: none"></rect></g><text y="-10.1" style=""><tspan class="text-outer-tspan" x="0" y="-0.1em" dy="1.1em"></tspan></text></g><g class="label attribute-type" transform="translate(-115.2109375, -165.3125)" style=""><g><rect class="background" style="stroke: none"></rect></g><text y="-10.1" style=""><tspan class="text-outer-tspan" x="0" y="-0.1em" dy="1.1em"><tspan font-style="normal" class="text-inner-tspan" font-weight="normal">string</tspan></tspan></text></g><g class="label attribute-name" transform="translate(-22.1953125, -165.3125)" style=""><g><rect class="background" style="stroke: none"></rect></g><text y="-10.1" style=""><tspan class="text-outer-tspan" x="0" y="-0.1em" dy="1.1em"><tspan font-style="normal" class="text-inner-tspan" font-weight="normal">checkouttype</tspan></tspan></text></g><g class="label attribute-keys" transform="translate(140.2109375, -165.3125)" style=""><g><rect class="background" style="stroke: none"></rect></g><text y="-10.1" style=""><tspan class="text-outer-tspan" x="0" y="-0.1em" dy="1.1em"></tspan></text></g><g class="label attribute-comment" transform="translate(140.2109375, -165.3125)" style=""><g><rect class="background" style="stroke: none"></rect></g><text y="-10.1" style=""><tspan class="text-outer-tspan" x="0" y="-0.1em" dy="1.1em"></tspan></text></g><g class="label attribute-type" transform="translate(-115.2109375, -130.4453125)" style=""><g><rect class="background" style="stroke: none"></rect></g><text y="-10.1" style=""><tspan class="text-outer-tspan" x="0" y="-0.1em" dy="1.1em"><tspan font-style="normal" class="text-inner-tspan" font-weight="normal">string</tspan></tspan></text></g><g class="label attribute-name" transform="translate(-22.1953125, -130.4453125)" style=""><g><rect class="background" style="stroke: none"></rect></g><text y="-10.1" style=""><tspan class="text-outer-tspan" x="0" y="-0.1em" dy="1.1em"><tspan font-style="normal" class="text-inner-tspan" font-weight="normal">materialtype</tspan></tspan></text></g><g class="label attribute-keys" transform="translate(140.2109375, -130.4453125)" style=""><g><rect class="background" style="stroke: none"></rect></g><text y="-10.1" style=""><tspan class="text-outer-tspan" x="0" y="-0.1em" dy="1.1em"></tspan></text></g><g class="label attribute-comment" transform="translate(140.2109375, -130.4453125)" style=""><g><rect class="background" style="stroke: none"></rect></g><text y="-10.1" style=""><tspan class="text-outer-tspan" x="0" y="-0.1em" dy="1.1em"></tspan></text></g><g class="label attribute-type" transform="translate(-115.2109375, -95.578125)" style=""><g><rect class="background" style="stroke: none"></rect></g><text y="-10.1" style=""><tspan class="text-outer-tspan" x="0" y="-0.1em" dy="1.1em"><tspan font-style="normal" class="text-inner-tspan" font-weight="normal">int</tspan></tspan></text></g><g class="label attribute-name" transform="translate(-22.1953125, -95.578125)" style=""><g><rect class="background" style="stroke: none"></rect></g><text y="-10.1" style=""><tspan class="text-outer-tspan" x="0" y="-0.1em" dy="1.1em"><tspan font-style="normal" class="text-inner-tspan" font-weight="normal">checkoutyear</tspan></tspan></text></g><g class="label attribute-keys" transform="translate(140.2109375, -95.578125)" style=""><g><rect class="background" style="stroke: none"></rect></g><text y="-10.1" style=""><tspan class="text-outer-tspan" x="0" y="-0.1em" dy="1.1em"></tspan></text></g><g class="label attribute-comment" transform="translate(140.2109375, -95.578125)" style=""><g><rect class="background" style="stroke: none"></rect></g><text y="-10.1" style=""><tspan class="text-outer-tspan" x="0" y="-0.1em" dy="1.1em"></tspan></text></g><g class="label attribute-type" transform="translate(-115.2109375, -60.7109375)" style=""><g><rect class="background" style="stroke: none"></rect></g><text y="-10.1" style=""><tspan class="text-outer-tspan" x="0" y="-0.1em" dy="1.1em"><tspan font-style="normal" class="text-inner-tspan" font-weight="normal">int</tspan></tspan></text></g><g class="label attribute-name" transform="translate(-22.1953125, -60.7109375)" style=""><g><rect class="background" style="stroke: none"></rect></g><text y="-10.1" style=""><tspan class="text-outer-tspan" x="0" y="-0.1em" dy="1.1em"><tspan font-style="normal" class="text-inner-tspan" font-weight="normal">checkoutmonth</tspan></tspan></text></g><g class="label attribute-keys" transform="translate(140.2109375, -60.7109375)" style=""><g><rect class="background" style="stroke: none"></rect></g><text y="-10.1" style=""><tspan class="text-outer-tspan" x="0" y="-0.1em" dy="1.1em"></tspan></text></g><g class="label attribute-comment" transform="translate(140.2109375, -60.7109375)" style=""><g><rect class="background" style="stroke: none"></rect></g><text y="-10.1" style=""><tspan class="text-outer-tspan" x="0" y="-0.1em" dy="1.1em"></tspan></text></g><g class="label attribute-type" transform="translate(-115.2109375, -26.2109375)" style=""><g><rect class="background" style="stroke: none"></rect></g><text y="-10.1" style=""><tspan class="text-outer-tspan" x="0" y="-0.1em" dy="1.1em"><tspan font-style="normal" class="text-inner-tspan" font-weight="normal">int</tspan></tspan></text></g><g class="label attribute-name" transform="translate(-22.1953125, -26.2109375)" style=""><g><rect class="background" style="stroke: none"></rect></g><text y="-10.1" style=""><tspan class="text-outer-tspan" x="0" y="-0.1em" dy="1.1em"><tspan font-style="normal" class="text-inner-tspan" font-weight="normal">checkouts</tspan></tspan></text></g><g class="label attribute-keys" transform="translate(140.2109375, -26.2109375)" style=""><g><rect class="background" style="stroke: none"></rect></g><text y="-10.1" style=""><tspan class="text-outer-tspan" x="0" y="-0.1em" dy="1.1em"></tspan></text></g><g class="label attribute-comment" transform="translate(140.2109375, -26.2109375)" style=""><g><rect class="background" style="stroke: none"></rect></g><text y="-10.1" style=""><tspan class="text-outer-tspan" x="0" y="-0.1em" dy="1.1em"></tspan></text></g><g class="label attribute-type" transform="translate(-115.2109375, 8.2890625)" style=""><g><rect class="background" style="stroke: none"></rect></g><text y="-10.1" style=""><tspan class="text-outer-tspan" x="0" y="-0.1em" dy="1.1em"><tspan font-style="normal" class="text-inner-tspan" font-weight="normal">string</tspan></tspan></text></g><g class="label attribute-name" transform="translate(-22.1953125, 8.2890625)" style=""><g><rect class="background" style="stroke: none"></rect></g><text y="-10.1" style=""><tspan class="text-outer-tspan" x="0" y="-0.1em" dy="1.1em"><tspan font-style="normal" class="text-inner-tspan" font-weight="normal">title</tspan></tspan></text></g><g class="label attribute-keys" transform="translate(140.2109375, 8.2890625)" style=""><g><rect class="background" style="stroke: none"></rect></g><text y="-10.1" style=""><tspan class="text-outer-tspan" x="0" y="-0.1em" dy="1.1em"></tspan></text></g><g class="label attribute-comment" transform="translate(140.2109375, 8.2890625)" style=""><g><rect class="background" style="stroke: none"></rect></g><text y="-10.1" style=""><tspan class="text-outer-tspan" x="0" y="-0.1em" dy="1.1em"></tspan></text></g><g class="label attribute-type" transform="translate(-115.2109375, 43.15625)" style=""><g><rect class="background" style="stroke: none"></rect></g><text y="-10.1" style=""><tspan class="text-outer-tspan" x="0" y="-0.1em" dy="1.1em"><tspan font-style="normal" class="text-inner-tspan" font-weight="normal">string</tspan></tspan></text></g><g class="label attribute-name" transform="translate(-22.1953125, 43.15625)" style=""><g><rect class="background" style="stroke: none"></rect></g><text y="-10.1" style=""><tspan class="text-outer-tspan" x="0" y="-0.1em" dy="1.1em"><tspan font-style="normal" class="text-inner-tspan" font-weight="normal">isbn</tspan></tspan></text></g><g class="label attribute-keys" transform="translate(140.2109375, 43.15625)" style=""><g><rect class="background" style="stroke: none"></rect></g><text y="-10.1" style=""><tspan class="text-outer-tspan" x="0" y="-0.1em" dy="1.1em"></tspan></text></g><g class="label attribute-comment" transform="translate(140.2109375, 43.15625)" style=""><g><rect class="background" style="stroke: none"></rect></g><text y="-10.1" style=""><tspan class="text-outer-tspan" x="0" y="-0.1em" dy="1.1em"></tspan></text></g><g class="label attribute-type" transform="translate(-115.2109375, 78.0234375)" style=""><g><rect class="background" style="stroke: none"></rect></g><text y="-10.1" style=""><tspan class="text-outer-tspan" x="0" y="-0.1em" dy="1.1em"><tspan font-style="normal" class="text-inner-tspan" font-weight="normal">string</tspan></tspan></text></g><g class="label attribute-name" transform="translate(-22.1953125, 78.0234375)" style=""><g><rect class="background" style="stroke: none"></rect></g><text y="-10.1" style=""><tspan class="text-outer-tspan" x="0" y="-0.1em" dy="1.1em"><tspan font-style="normal" class="text-inner-tspan" font-weight="normal">creator</tspan></tspan></text></g><g class="label attribute-keys" transform="translate(140.2109375, 78.0234375)" style=""><g><rect class="background" style="stroke: none"></rect></g><text y="-10.1" style=""><tspan class="text-outer-tspan" x="0" y="-0.1em" dy="1.1em"></tspan></text></g><g class="label attribute-comment" transform="translate(140.2109375, 78.0234375)" style=""><g><rect class="background" style="stroke: none"></rect></g><text y="-10.1" style=""><tspan class="text-outer-tspan" x="0" y="-0.1em" dy="1.1em"></tspan></text></g><g class="label attribute-type" transform="translate(-115.2109375, 112.890625)" style=""><g><rect class="background" style="stroke: none"></rect></g><text y="-10.1" style=""><tspan class="text-outer-tspan" x="0" y="-0.1em" dy="1.1em"><tspan font-style="normal" class="text-inner-tspan" font-weight="normal">string</tspan></tspan></text></g><g class="label attribute-name" transform="translate(-22.1953125, 112.890625)" style=""><g><rect class="background" style="stroke: none"></rect></g><text y="-10.1" style=""><tspan class="text-outer-tspan" x="0" y="-0.1em" dy="1.1em"><tspan font-style="normal" class="text-inner-tspan" font-weight="normal">subjects</tspan></tspan></text></g><g class="label attribute-keys" transform="translate(140.2109375, 112.890625)" style=""><g><rect class="background" style="stroke: none"></rect></g><text y="-10.1" style=""><tspan class="text-outer-tspan" x="0" y="-0.1em" dy="1.1em"></tspan></text></g><g class="label attribute-comment" transform="translate(140.2109375, 112.890625)" style=""><g><rect class="background" style="stroke: none"></rect></g><text y="-10.1" style=""><tspan class="text-outer-tspan" x="0" y="-0.1em" dy="1.1em"></tspan></text></g><g class="label attribute-type" transform="translate(-115.2109375, 147.7578125)" style=""><g><rect class="background" style="stroke: none"></rect></g><text y="-10.1" style=""><tspan class="text-outer-tspan" x="0" y="-0.1em" dy="1.1em"><tspan font-style="normal" class="text-inner-tspan" font-weight="normal">string</tspan></tspan></text></g><g class="label attribute-name" transform="translate(-22.1953125, 147.7578125)" style=""><g><rect class="background" style="stroke: none"></rect></g><text y="-10.1" style=""><tspan class="text-outer-tspan" x="0" y="-0.1em" dy="1.1em"><tspan font-style="normal" class="text-inner-tspan" font-weight="normal">publisher</tspan></tspan></text></g><g class="label attribute-keys" transform="translate(140.2109375, 147.7578125)" style=""><g><rect class="background" style="stroke: none"></rect></g><text y="-10.1" style=""><tspan class="text-outer-tspan" x="0" y="-0.1em" dy="1.1em"></tspan></text></g><g class="label attribute-comment" transform="translate(140.2109375, 147.7578125)" style=""><g><rect class="background" style="stroke: none"></rect></g><text y="-10.1" style=""><tspan class="text-outer-tspan" x="0" y="-0.1em" dy="1.1em"></tspan></text></g><g class="label attribute-type" transform="translate(-115.2109375, 182.625)" style=""><g><rect class="background" style="stroke: none"></rect></g><text y="-10.1" style=""><tspan class="text-outer-tspan" x="0" y="-0.1em" dy="1.1em"><tspan font-style="normal" class="text-inner-tspan" font-weight="normal">string</tspan></tspan></text></g><g class="label attribute-name" transform="translate(-22.1953125, 182.625)" style=""><g><rect class="background" style="stroke: none"></rect></g><text y="-10.1" style=""><tspan class="text-outer-tspan" x="0" y="-0.1em" dy="1.1em"><tspan font-style="normal" class="text-inner-tspan" font-weight="normal">publicationyear</tspan></tspan></text></g><g class="label attribute-keys" transform="translate(140.2109375, 182.625)" style=""><g><rect class="background" style="stroke: none"></rect></g><text y="-10.1" style=""><tspan class="text-outer-tspan" x="0" y="-0.1em" dy="1.1em"></tspan></text></g><g class="label attribute-comment" transform="translate(140.2109375, 182.625)" style=""><g><rect class="background" style="stroke: none"></rect></g><text y="-10.1" style=""><tspan class="text-outer-tspan" x="0" y="-0.1em" dy="1.1em"></tspan></text></g><g class="label attribute-type" transform="translate(-115.2109375, 217.4921875)" style=""><g><rect class="background" style="stroke: none"></rect></g><text y="-10.1" style=""><tspan class="text-outer-tspan" x="0" y="-0.1em" dy="1.1em"><tspan font-style="normal" class="text-inner-tspan" font-weight="normal">string</tspan></tspan></text></g><g class="label attribute-name" transform="translate(-22.1953125, 217.4921875)" style=""><g><rect class="background" style="stroke: none"></rect></g><text y="-10.1" style=""><tspan class="text-outer-tspan" x="0" y="-0.1em" dy="1.1em"><tspan font-style="normal" class="text-inner-tspan" font-weight="normal">sample_design</tspan></tspan></text></g><g class="label attribute-keys" transform="translate(140.2109375, 217.4921875)" style=""><g><rect class="background" style="stroke: none"></rect></g><text y="-10.1" style=""><tspan class="text-outer-tspan" x="0" y="-0.1em" dy="1.1em"></tspan></text></g><g class="label attribute-comment" transform="translate(140.2109375, 217.4921875)" style=""><g><rect class="background" style="stroke: none"></rect></g><text y="-10.1" style=""><tspan class="text-outer-tspan" x="0" y="-0.1em" dy="1.1em"></tspan></text></g><g class="divider"><path d="M-127.7109375 -208.9296875 C-68.99569635670007 -208.9296875, -10.280455213400131 -208.9296875, 127.7109375 -208.9296875 M-127.7109375 -208.9296875 C-61.163615595557786 -208.9296875, 5.3837063088844275 -208.9296875, 127.7109375 -208.9296875" stroke="#64748b" stroke-width="1.3" fill="none" stroke-dasharray="0 0"></path></g><g class="divider"><path d="M-34.6953125 -208.9296875 C-34.6953125 -54.0803850230121, -34.6953125 100.7689174539758, -34.6953125 243.609375 M-34.6953125 -208.9296875 C-34.6953125 -115.46118163822173, -34.6953125 -21.992675776443463, -34.6953125 243.609375" stroke="#64748b" stroke-width="1.3" fill="none" stroke-dasharray="0 0"></path></g><g class="divider"><path d="M-127.7109375 -208.9296875 C-67.99337388461268 -208.9296875, -8.275810269225374 -208.9296875, 127.7109375 -208.9296875 M-127.7109375 -208.9296875 C-40.19798366411298 -208.9296875, 47.314970171774036 -208.9296875, 127.7109375 -208.9296875" stroke="#64748b" stroke-width="1.3" fill="none" stroke-dasharray="0 0"></path></g></g></g></g></g></svg>